<svg xmlns="http://www.w3.org/2000/svg" width="33" height="32" viewBox="0 0 33 32" fill="none">
  <mask id="mask0_760_973" style="mask-type:alpha" maskUnits="userSpaceOnUse" x="0" y="0" width="33" height="32">
    <rect x="0.699997" width="32" height="32" fill="#D9D9D9"/>
  </mask>
  <g mask="url(#mask0_760_973)">
    <path d="M8.7 25.3333H13.1617V18.6153C13.1617 18.274 13.2771 17.9878 13.508 17.7567C13.7391 17.5258 14.0253 17.4103 14.3667 17.4103H19.0333C19.3747 17.4103 19.6609 17.5258 19.892 17.7567C20.1229 17.9878 20.2383 18.274 20.2383 18.6153V25.3333H24.7V13.5383C24.7 13.4701 24.685 13.4082 24.655 13.3527C24.6252 13.2971 24.5847 13.2479 24.5333 13.205L16.9437 7.50001C16.8752 7.44023 16.794 7.41034 16.7 7.41034C16.606 7.41034 16.5248 7.44023 16.4563 7.50001L8.86666 13.205C8.81533 13.2479 8.77478 13.2971 8.745 13.3527C8.715 13.4082 8.7 13.4701 8.7 13.5383V25.3333ZM6.7 25.3333V13.5383C6.7 13.1568 6.78533 12.7953 6.956 12.454C7.12689 12.1125 7.36289 11.8312 7.664 11.6103L15.254 5.89234C15.6751 5.57101 16.1564 5.41034 16.698 5.41034C17.2396 5.41034 17.7222 5.57101 18.146 5.89234L25.736 11.6103C26.0371 11.8312 26.2731 12.1125 26.444 12.454C26.6147 12.7953 26.7 13.1568 26.7 13.5383V25.3333C26.7 25.8787 26.503 26.3483 26.109 26.7423C25.715 27.1363 25.2453 27.3333 24.7 27.3333H19.4437C19.1021 27.3333 18.8159 27.2178 18.585 26.9867C18.3539 26.7558 18.2383 26.4696 18.2383 26.128V19.4103H15.1617V26.128C15.1617 26.4696 15.0461 26.7558 14.815 26.9867C14.5841 27.2178 14.2979 27.3333 13.9563 27.3333H8.7C8.15466 27.3333 7.685 27.1363 7.291 26.7423C6.897 26.3483 6.7 25.8787 6.7 25.3333Z" fill="currentColor"/>
  </g>
</svg>