<svg xmlns="http://www.w3.org/2000/svg" width="33" height="32" viewBox="0 0 33 32" fill="none">
  <mask id="mask0_760_979" style="mask-type:alpha" maskUnits="userSpaceOnUse" x="0" y="0" width="33" height="32">
    <rect x="0.500006" width="32" height="32" fill="#D9D9D9"/>
  </mask>
  <g mask="url(#mask0_760_979)">
    <path d="M23.834 25.7437C22.9942 25.7437 22.2842 25.4537 21.704 24.8737C21.1236 24.2939 20.8333 23.5841 20.8333 22.7443C20.8333 21.9046 21.1233 21.1944 21.7033 20.614C22.2833 20.0338 22.9933 19.7437 23.8333 19.7437C24.0625 19.7437 24.2945 19.7731 24.5293 19.832C24.7645 19.8909 25.0026 19.993 25.2437 20.1383V14.436C25.2437 14.0944 25.3591 13.8082 25.59 13.5773C25.8211 13.3462 26.1073 13.2307 26.4487 13.2307H28.3203C28.647 13.2307 28.9252 13.3438 29.155 13.57C29.385 13.796 29.5 14.0761 29.5 14.4103C29.5 14.7368 29.385 15.015 29.155 15.245C28.9252 15.4748 28.647 15.5897 28.3203 15.5897H26.8333V22.7437C26.8333 23.5837 26.5435 24.2937 25.9637 24.8737C25.3837 25.4537 24.6738 25.7437 23.834 25.7437ZM6.03834 25.7437C5.69701 25.7437 5.41078 25.6281 5.17967 25.397C4.94878 25.1661 4.83334 24.8799 4.83334 24.5383V22.7793C4.83334 22.1127 5.01067 21.5046 5.36534 20.955C5.72001 20.4054 6.19401 19.9811 6.78734 19.682C8.12223 19.0273 9.4559 18.5406 10.7883 18.2217C12.1208 17.903 13.4691 17.7437 14.8333 17.7437C15.3787 17.7437 15.9159 17.7668 16.445 17.813C16.9739 17.859 17.4939 17.9376 18.005 18.0487C18.3521 18.1204 18.5889 18.2692 18.7153 18.495C18.8418 18.7206 18.8871 18.9572 18.8513 19.205C18.8153 19.453 18.7003 19.665 18.5063 19.841C18.3123 20.017 18.0641 20.0734 17.7617 20.0103C17.295 19.9214 16.8168 19.8548 16.327 19.8103C15.8372 19.7659 15.3393 19.7437 14.8333 19.7437C13.6093 19.7437 12.4033 19.8907 11.2153 20.1847C10.0273 20.4787 8.85723 20.906 7.70501 21.4667C7.43678 21.6033 7.22445 21.7888 7.06801 22.023C6.91156 22.2572 6.83334 22.5093 6.83334 22.7793V23.7437H17.0487C17.382 23.7437 17.632 23.8476 17.7987 24.0553C17.9653 24.2631 18.0487 24.4918 18.0487 24.7413C18.0487 24.9907 17.9653 25.22 17.7987 25.4293C17.632 25.6389 17.382 25.7437 17.0487 25.7437H6.03834ZM14.8333 15.5897C13.55 15.5897 12.4515 15.1328 11.5377 14.219C10.6237 13.305 10.1667 12.2063 10.1667 10.923C10.1667 9.63967 10.6237 8.54111 11.5377 7.62733C12.4515 6.71333 13.55 6.25633 14.8333 6.25633C16.1167 6.25633 17.2152 6.71333 18.129 7.62733C19.043 8.54111 19.5 9.63967 19.5 10.923C19.5 12.2063 19.043 13.305 18.129 14.219C17.2152 15.1328 16.1167 15.5897 14.8333 15.5897ZM14.8333 13.5897C15.5667 13.5897 16.1945 13.3286 16.7167 12.8063C17.2389 12.2841 17.5 11.6563 17.5 10.923C17.5 10.1897 17.2389 9.56189 16.7167 9.03967C16.1945 8.51744 15.5667 8.25633 14.8333 8.25633C14.1 8.25633 13.4722 8.51744 12.95 9.03967C12.4278 9.56189 12.1667 10.1897 12.1667 10.923C12.1667 11.6563 12.4278 12.2841 12.95 12.8063C13.4722 13.3286 14.1 13.5897 14.8333 13.5897Z" fill="currentColor"/>
  </g>
</svg>