<svg xmlns="http://www.w3.org/2000/svg" width="33" height="32" viewBox="0 0 33 32" fill="none">
  <mask id="mask0_760_976" style="mask-type:alpha" maskUnits="userSpaceOnUse" x="0" y="0" width="33" height="32">
    <rect x="0.100002" width="32" height="32" fill="#D9D9D9"/>
  </mask>
  <g mask="url(#mask0_760_976)">
    <path d="M30.1 7.077V24.923C30.1 25.5859 29.864 26.1533 29.392 26.6253C28.92 27.0973 28.3526 27.3333 27.6897 27.3333H23.1C22.8167 27.3333 22.5791 27.2374 22.3873 27.0457C22.1958 26.8539 22.1 26.6163 22.1 26.333C22.1 26.0494 22.1958 25.812 22.3873 25.6207C22.5791 25.4291 22.8167 25.3333 23.1 25.3333H27.6897C27.8094 25.3333 27.9078 25.2949 27.9847 25.218C28.0616 25.1411 28.1 25.0428 28.1 24.923V7.077C28.1 6.95723 28.0616 6.85889 27.9847 6.78201C27.9078 6.70512 27.8094 6.66667 27.6897 6.66667H16.1C15.9802 6.66667 15.8819 6.70512 15.805 6.78201C15.7281 6.85889 15.6897 6.95723 15.6897 7.077V8.19234C15.6897 8.47567 15.5938 8.71323 15.402 8.90501C15.2102 9.09656 14.9727 9.19234 14.6893 9.19234C14.4058 9.19234 14.1683 9.09656 13.977 8.90501C13.7854 8.71323 13.6897 8.47567 13.6897 8.19234V7.03601C13.6897 6.38801 13.9226 5.83112 14.3883 5.36534C14.8541 4.89956 15.411 4.66667 16.059 4.66667H27.6897C28.3526 4.66667 28.92 4.90267 29.392 5.37467C29.864 5.84667 30.1 6.41412 30.1 7.077ZM2.1 16.2383C2.1 15.8452 2.18934 15.4748 2.368 15.127C2.54667 14.779 2.79667 14.4957 3.118 14.277L9.37434 9.818C9.59611 9.65845 9.82289 9.54378 10.0547 9.474C10.2864 9.40423 10.5233 9.36934 10.7653 9.36934C11.0073 9.36934 11.2446 9.40423 11.477 9.474C11.7092 9.54378 11.9366 9.65845 12.159 9.818L18.4153 14.277C18.7367 14.4957 18.9867 14.779 19.1653 15.127C19.344 15.4748 19.4333 15.8452 19.4333 16.2383V24.923C19.4333 25.5859 19.1973 26.1533 18.7253 26.6253C18.2533 27.0973 17.6859 27.3333 17.023 27.3333H14.6897C14.027 27.3333 13.4597 27.0973 12.9877 26.6253C12.5157 26.1533 12.2797 25.5859 12.2797 24.923V21H9.25367V24.923C9.25367 25.5859 9.01767 26.1533 8.54567 26.6253C8.07367 27.0973 7.50634 27.3333 6.84367 27.3333H4.51034C3.84745 27.3333 3.28 27.0973 2.808 26.6253C2.336 26.1533 2.1 25.5859 2.1 24.923V16.2383ZM4.1 16.218V24.923C4.1 25.0428 4.13845 25.1411 4.21534 25.218C4.29222 25.2949 4.39056 25.3333 4.51034 25.3333H6.84367C6.96322 25.3333 7.06145 25.2949 7.13834 25.218C7.21545 25.1411 7.254 25.0428 7.254 24.923V21.0257C7.254 20.4632 7.451 19.985 7.845 19.591C8.239 19.197 8.71711 19 9.27934 19H12.254C12.8162 19 13.2943 19.197 13.6883 19.591C14.0823 19.985 14.2793 20.4632 14.2793 21.0257V24.923C14.2793 25.0428 14.3179 25.1411 14.395 25.218C14.4719 25.2949 14.5701 25.3333 14.6897 25.3333H17.023C17.1428 25.3333 17.2411 25.2949 17.318 25.218C17.3949 25.1411 17.4333 25.0428 17.4333 24.923V16.218C17.4333 16.1496 17.4183 16.0854 17.3883 16.0257C17.3586 15.9659 17.3137 15.9146 17.2537 15.8717L10.9973 11.459C10.9291 11.4077 10.8522 11.382 10.7667 11.382C10.6811 11.382 10.6042 11.4077 10.536 11.459L4.27967 15.8717C4.21967 15.9146 4.17478 15.9659 4.145 16.0257C4.115 16.0854 4.1 16.1496 4.1 16.218ZM23.523 11.846H24.677C24.8377 11.846 24.9782 11.7858 25.0987 11.6653C25.2191 11.5449 25.2793 11.4043 25.2793 11.2437V10.0897C25.2793 9.92901 25.2191 9.78845 25.0987 9.668C24.9782 9.54756 24.8377 9.48734 24.677 9.48734H23.523C23.3623 9.48734 23.2218 9.54756 23.1013 9.668C22.9809 9.78845 22.9207 9.92901 22.9207 10.0897V11.2437C22.9207 11.4043 22.9809 11.5449 23.1013 11.6653C23.2218 11.7858 23.3623 11.846 23.523 11.846ZM23.523 17.1793H24.677C24.8377 17.1793 24.9782 17.1191 25.0987 16.9987C25.2191 16.8782 25.2793 16.7377 25.2793 16.577V15.423C25.2793 15.2623 25.2191 15.1218 25.0987 15.0013C24.9782 14.8809 24.8377 14.8207 24.677 14.8207H23.523C23.3623 14.8207 23.2218 14.8809 23.1013 15.0013C22.9809 15.1218 22.9207 15.2623 22.9207 15.423V16.577C22.9207 16.7377 22.9809 16.8782 23.1013 16.9987C23.2218 17.1191 23.3623 17.1793 23.523 17.1793ZM23.523 22.5127H24.677C24.8377 22.5127 24.9782 22.4524 25.0987 22.332C25.2191 22.2116 25.2793 22.071 25.2793 21.9103V20.7563C25.2793 20.5957 25.2191 20.4551 25.0987 20.3347C24.9782 20.2142 24.8377 20.154 24.677 20.154H23.523C23.3623 20.154 23.2218 20.2142 23.1013 20.3347C22.9809 20.4551 22.9207 20.5957 22.9207 20.7563V21.9103C22.9207 22.071 22.9809 22.2116 23.1013 22.332C23.2218 22.4524 23.3623 22.5127 23.523 22.5127Z" fill="currentColor"/>
  </g>
</svg>