<svg xmlns="http://www.w3.org/2000/svg" width="33" height="32" viewBox="0 0 33 32" fill="none">
  <mask id="mask0_760_985" style="mask-type:alpha" maskUnits="userSpaceOnUse" x="0" y="0" width="33" height="32">
    <rect x="0.300003" width="32" height="32" fill="#D9D9D9"/>
  </mask>
  <g mask="url(#mask0_760_985)">
    <path d="M7.37701 27.3333C6.70345 27.3333 6.13334 27.1 5.66667 26.6333C5.20001 26.1667 4.96667 25.5966 4.96667 24.923V7.077C4.96667 6.40345 5.20001 5.83334 5.66667 5.36667C6.13334 4.90001 6.70345 4.66667 7.37701 4.66667H25.223C25.8966 4.66667 26.4667 4.90001 26.9333 5.36667C27.4 5.83334 27.6333 6.40345 27.6333 7.077V24.923C27.6333 25.5966 27.4 26.1667 26.9333 26.6333C26.4667 27.1 25.8966 27.3333 25.223 27.3333H7.37701ZM7.37701 25.3333H15.3V6.66667H7.37701C7.27434 6.66667 7.18034 6.70945 7.09501 6.795C7.00945 6.88034 6.96667 6.97434 6.96667 7.077V24.923C6.96667 25.0257 7.00945 25.1197 7.09501 25.205C7.18034 25.2906 7.27434 25.3333 7.37701 25.3333ZM17.3 25.3333H25.223C25.3257 25.3333 25.4197 25.2906 25.505 25.205C25.5906 25.1197 25.6333 25.0257 25.6333 24.923V16H17.3V25.3333ZM17.3 14H25.6333V7.077C25.6333 6.97434 25.5906 6.88034 25.505 6.795C25.4197 6.70945 25.3257 6.66667 25.223 6.66667H17.3V14Z" fill="currentColor"/>
  </g>
</svg>