<svg xmlns="http://www.w3.org/2000/svg" width="33" height="32" viewBox="0 0 33 32" fill="none">
  <mask id="mask0_760_982" style="mask-type:alpha" maskUnits="userSpaceOnUse" x="0" y="0" width="33" height="32">
    <rect x="0.900009" width="32" height="32" fill="#D9D9D9"/>
  </mask>
  <g mask="url(#mask0_760_982)">
    <path d="M8.90001 29.3333C8.16668 29.3333 7.5389 29.0722 7.01668 28.55C6.49446 28.0278 6.23335 27.4 6.23335 26.6667V5.33334C6.23335 4.60001 6.49446 3.97223 7.01668 3.45001C7.5389 2.92778 8.16668 2.66667 8.90001 2.66667H24.9C25.6333 2.66667 26.2611 2.92778 26.7833 3.45001C27.3056 3.97223 27.5667 4.60001 27.5667 5.33334V26.6667C27.5667 27.4 27.3056 28.0278 26.7833 28.55C26.2611 29.0722 25.6333 29.3333 24.9 29.3333H8.90001ZM8.90001 26.6667H24.9V5.33334H8.90001V26.6667ZM16.9 25.3333C18.7445 25.3333 20.3167 24.6833 21.6167 23.3833C22.9167 22.0833 23.5667 20.5111 23.5667 18.6667C23.5667 16.8222 22.9167 15.25 21.6167 13.95C20.3167 12.65 18.7445 12 16.9 12C15.0556 12 13.4833 12.65 12.1833 13.95C10.8833 15.25 10.2333 16.8222 10.2333 18.6667C10.2333 20.5111 10.8833 22.0833 12.1833 23.3833C13.4833 24.6833 15.0556 25.3333 16.9 25.3333ZM16.9 23.0667C16.3222 23.0667 15.7611 22.9611 15.2167 22.75C14.6722 22.5389 14.1889 22.2222 13.7667 21.8L20.0333 15.5333C20.4556 15.9556 20.7722 16.4389 20.9833 16.9833C21.1945 17.5278 21.3 18.0889 21.3 18.6667C21.3 19.8889 20.8722 20.9278 20.0167 21.7833C19.1611 22.6389 18.1222 23.0667 16.9 23.0667ZM11.5667 9.33334C11.9445 9.33334 12.2611 9.20556 12.5167 8.95001C12.7722 8.69445 12.9 8.37778 12.9 8.00001C12.9 7.62223 12.7722 7.30556 12.5167 7.05001C12.2611 6.79445 11.9445 6.66667 11.5667 6.66667C11.1889 6.66667 10.8722 6.79445 10.6167 7.05001C10.3611 7.30556 10.2333 7.62223 10.2333 8.00001C10.2333 8.37778 10.3611 8.69445 10.6167 8.95001C10.8722 9.20556 11.1889 9.33334 11.5667 9.33334ZM15.5667 9.33334C15.9445 9.33334 16.2611 9.20556 16.5167 8.95001C16.7722 8.69445 16.9 8.37778 16.9 8.00001C16.9 7.62223 16.7722 7.30556 16.5167 7.05001C16.2611 6.79445 15.9445 6.66667 15.5667 6.66667C15.1889 6.66667 14.8722 6.79445 14.6167 7.05001C14.3611 7.30556 14.2333 7.62223 14.2333 8.00001C14.2333 8.37778 14.3611 8.69445 14.6167 8.95001C14.8722 9.20556 15.1889 9.33334 15.5667 9.33334Z" fill="currentColor"/>
  </g>
</svg>