<svg xmlns="http://www.w3.org/2000/svg" width="60" height="60" viewBox="0 0 60 60" fill="none">
  <mask id="mask0_596_1092" style="mask-type:alpha" maskUnits="userSpaceOnUse" x="0" y="0" width="60" height="60">
    <rect width="60" height="60" fill="#D9D9D9"/>
  </mask>
  <g mask="url(#mask0_596_1092)">
    <path d="M48.6539 38.6056V24.5769L29.6589 34.8894C28.9785 35.274 28.2604 35.4662 27.5045 35.4662C26.7483 35.4662 26.0272 35.274 25.3414 34.8894L6.23578 24.4712C5.82578 24.2371 5.53099 23.9523 5.35141 23.6169C5.17182 23.2819 5.08203 22.9094 5.08203 22.4994C5.08203 22.0894 5.17182 21.7171 5.35141 21.3825C5.53099 21.0475 5.82578 20.7629 6.23578 20.5287L25.3408 10.1231C25.6799 9.93479 26.0285 9.79354 26.3864 9.69937C26.7443 9.60479 27.1156 9.5575 27.5002 9.5575C27.8847 9.5575 28.256 9.60562 28.6139 9.70187C28.9714 9.79812 29.3197 9.94249 29.6589 10.135L51.2114 21.8606C51.5902 22.0506 51.8835 22.326 52.0914 22.6869C52.2997 23.0481 52.4039 23.4377 52.4039 23.8556V38.6056C52.4039 39.1369 52.2241 39.5823 51.8645 39.9419C51.505 40.301 51.0595 40.4806 50.5283 40.4806C49.9966 40.4806 49.5514 40.301 49.1927 39.9419C48.8335 39.5823 48.6539 39.1369 48.6539 38.6056ZM25.3414 48.4231L13.6108 42.0812C12.8737 41.6712 12.296 41.1085 11.8777 40.3931C11.4593 39.6773 11.2502 38.9052 11.2502 38.0769V29.4425L25.3414 37.0769C26.0218 37.4615 26.7399 37.6537 27.4958 37.6537C28.252 37.6537 28.9731 37.4615 29.6589 37.0769L43.7502 29.4425V38.0812C43.7502 38.915 43.541 39.6875 43.1227 40.3987C42.7043 41.1104 42.1266 41.6712 41.3895 42.0812L29.6589 48.4231C29.3181 48.6152 28.9677 48.7594 28.6077 48.8556C28.2481 48.9519 27.8789 49 27.5002 49C27.1214 49 26.7522 48.9519 26.3927 48.8556C26.0327 48.7594 25.6822 48.6152 25.3414 48.4231Z" fill="#202128"/>
  </g>
</svg>