<svg xmlns="http://www.w3.org/2000/svg" width="60" height="60" viewBox="0 0 60 60" fill="none">
  <mask id="mask0_596_1083" style="mask-type:alpha" maskUnits="userSpaceOnUse" x="0" y="0" width="60" height="60">
    <rect width="60" height="60" fill="#D9D9D9"/>
  </mask>
  <g mask="url(#mask0_596_1083)">
    <path d="M30 29.2306C27.5867 29.2306 25.525 28.3756 23.815 26.6656C22.105 24.956 21.25 22.8944 21.25 20.4806C21.25 18.0673 22.105 16.0056 23.815 14.2956C25.525 12.5856 27.5867 11.7306 30 11.7306C32.4133 11.7306 34.475 12.5856 36.185 14.2956C37.895 16.0056 38.75 18.0673 38.75 20.4806C38.75 22.8944 37.895 24.956 36.185 26.6656C34.475 28.3756 32.4133 29.2306 30 29.2306ZM11.25 44.4712V42.7112C11.25 41.4871 11.5825 40.3533 12.2475 39.31C12.9125 38.2667 13.8012 37.4646 14.9137 36.9037C17.3846 35.6925 19.8773 34.784 22.3919 34.1781C24.9065 33.5723 27.4425 33.2694 30 33.2694C32.5575 33.2694 35.0935 33.5723 37.6081 34.1781C40.1227 34.784 42.6154 35.6925 45.0863 36.9037C46.1988 37.4646 47.0875 38.2667 47.7525 39.31C48.4175 40.3533 48.75 41.4871 48.75 42.7112V44.4712C48.75 45.5254 48.3806 46.4221 47.6419 47.1612C46.9031 47.9 46.0065 48.2694 44.9519 48.2694H15.0481C13.9935 48.2694 13.0969 47.9 12.3581 47.1612C11.6194 46.4221 11.25 45.5254 11.25 44.4712Z" fill="#202128"/>
  </g>
</svg>