<svg width="19" height="19" viewBox="0 0 19 19" fill="none" xmlns="http://www.w3.org/2000/svg">
  <path
    d="M9.50002 4.76927C9.27117 4.76927 9.07935 4.84667 8.92455 5.00147C8.76975 5.15629 8.69235 5.34812 8.69235 5.57695C8.69235 5.8058 8.76975 5.99762 8.92455 6.15242C9.07935 6.30722 9.27117 6.38462 9.50002 6.38462C9.72887 6.38462 9.9207 6.30722 10.0755 6.15242C10.2303 5.99762 10.3077 5.8058 10.3077 5.57695C10.3077 5.34812 10.2303 5.15629 10.0755 5.00147C9.9207 4.84667 9.72887 4.76927 9.50002 4.76927ZM9.4997 8.4231C9.2871 8.4231 9.10901 8.49497 8.96542 8.63872C8.82184 8.78246 8.75005 8.96057 8.75005 9.17307L8.75005 13.6731C8.75005 13.8856 8.82195 14.0637 8.96575 14.2075C9.10957 14.3512 9.28777 14.4231 9.50035 14.4231C9.71295 14.4231 9.89104 14.3512 10.0346 14.2075C10.1782 14.0637 10.25 13.8856 10.25 13.6731L10.25 9.17307C10.25 8.96057 10.1781 8.78246 10.0343 8.63872C9.89048 8.49497 9.71228 8.4231 9.4997 8.4231ZM9.49835 4.85144e-05C10.8123 4.83995e-05 12.0473 0.249383 13.2034 0.748049C14.3596 1.24672 15.3653 1.92346 16.2205 2.7783C17.0757 3.63315 17.7528 4.63839 18.2517 5.79402C18.7506 6.94964 19 8.18442 19 9.49835C19 10.8123 18.7507 12.0473 18.252 13.2034C17.7533 14.3596 17.0766 15.3653 16.2217 16.2205C15.3669 17.0757 14.3617 17.7528 13.206 18.2517C12.0504 18.7506 10.8156 19 9.5017 19C8.18777 19 6.95273 18.7507 5.7966 18.252C4.64045 17.7533 3.63477 17.0766 2.77955 16.2218C1.92431 15.3669 1.24726 14.3617 0.748373 13.206C0.249489 12.0504 4.69682e-05 10.8156 4.68533e-05 9.5017C4.67385e-05 8.18777 0.249381 6.95273 0.748048 5.7966C1.24671 4.64045 1.92346 3.63477 2.7783 2.77955C3.63315 1.92432 4.63839 1.24726 5.79402 0.748374C6.94964 0.249491 8.18441 4.86292e-05 9.49835 4.85144e-05Z"
    fill="#FF9A05"/>
</svg>
