<svg width="1680" height="320" viewBox="0 0 1680 320" fill="none" xmlns="http://www.w3.org/2000/svg">
  <path
    d="M703.463 163.048C701.599 154.434 665.988 155.054 623.945 164.374C606.09 168.133 588.62 173.554 571.76 180.569C565.842 176.762 555.186 173.782 542.871 172.972C534.848 172.308 526.772 172.89 518.925 174.694C510.778 168.654 501.549 164.254 491.746 161.737C469.835 155.656 450.063 158.051 447.583 167.095C445.103 176.14 460.856 188.408 482.767 194.507C499.871 199.245 515.573 198.832 522.894 194.162C528.878 195.85 535.026 196.885 541.23 197.247C544.606 197.481 547.992 197.527 551.373 197.385C554.931 205.258 589.738 204.466 630.669 195.403C672.779 186.222 705.396 171.628 703.463 163.048Z"
    fill="#A1BFA7"/>
  <path
    d="M83.3157 222.053C51.3129 225.671 18.6093 214.799 12.3838 204.824C8.09456 204.191 3.96664 203.445 0 202.584V164.919C8.00972 164.993 16.0071 165.569 23.9458 166.643C40.8094 168.936 56.9457 175.026 71.1541 184.458L80.0143 183.459C104.525 180.754 126.196 182.598 137.348 187.594C142.206 189.749 145.079 192.505 145.353 195.744C146.276 206.426 118.517 218.228 83.3157 222.053Z"
    fill="#A1BFA7"/>
  <path
    d="M259.594 182.46L208.503 223.673L150.518 235.285L61.0794 261.665L0 270.124V179.755C12.3321 182.478 22.8372 190.214 30.6685 201.261C31.5433 202.501 32.5496 203.897 34.0895 204.139C34.8392 204.203 35.5944 204.122 36.313 203.897C52.933 200.178 70.3082 205.849 81.605 218.679C88.7205 212.019 96.7933 206.476 105.551 202.243C114.428 198.297 124.538 196.557 133.944 198.952C133.553 194.676 134.775 190.405 137.365 186.995C139.407 184.169 142.125 181.91 145.267 180.43C152.246 177.173 160.525 177.725 167.743 180.43C164.441 174.193 167.298 166.371 171.471 160.687C178.108 151.675 189.191 145.007 200.154 147.058L216.385 141.884L259.594 182.46Z"
    fill="#ABCEB3"/>
  <path
    d="M1679.76 144.723C1677.29 137.384 1656.41 135.38 1633.1 140.278C1625.52 141.811 1618.13 144.12 1611.01 147.17C1607.48 145.776 1603.87 144.568 1600.21 143.552C1578.74 137.573 1558.77 138.538 1555.56 145.706C1552.36 152.874 1567.11 163.539 1588.63 169.483C1608.86 175.116 1627.78 174.65 1632.56 168.483C1635.72 168.057 1638.88 167.517 1642.01 166.863C1665.32 162.005 1682.22 152.08 1679.76 144.723Z"
    fill="#A1BFA7"/>
  <path
    d="M1199.65 147.988C1197.59 143.957 1186.53 143.079 1174.98 146.007C1171.47 146.862 1168.07 148.116 1164.85 149.746C1160.7 148.217 1156.35 147.295 1151.94 147.006C1147.47 146.632 1142.97 146.805 1138.54 147.523C1134.73 144.634 1130.23 142.793 1125.49 142.182C1114.23 140.269 1102.92 143.027 1100.19 148.351C1097.47 153.677 1104.38 159.516 1115.59 161.429C1123.4 162.755 1132.21 167.838 1137.19 165.357C1140.3 166.408 1142.63 164.875 1146.96 165.22C1151.81 165.616 1157.01 161.67 1160.84 160.999C1165.36 162.825 1175.89 165.703 1184.58 163.497C1196.19 160.566 1201.74 152.004 1199.65 147.988Z"
    fill="#A1BFA7"/>
  <path
    d="M472.553 174.668C482.353 170.653 494.942 172.945 503.99 177.77C509.72 180.855 514.817 185.782 513.569 191.02C520.007 187.13 527.478 185.326 534.967 185.851C542.612 186.556 549.882 190.762 551.404 196.465C560.101 192.457 569.567 190.421 579.13 190.503C588.969 190.694 598.717 192.437 608.019 195.672C614.536 184.059 629.264 178.339 645.907 177.322C646.648 177.314 647.385 177.198 648.094 176.977C649.235 176.416 650.083 175.386 650.421 174.152C655.877 161.212 686.664 150.736 704.026 147.308L703.069 215.675L639.869 224.392L546.632 226.287L487.964 231.456L426.764 213.815L455.517 174.686L472.553 174.668Z"
    fill="#ABCEB3"/>
  <path
    d="M1064.99 134.198C1074.79 128.857 1087.36 131.786 1096.43 138.316C1102.14 142.434 1107.23 148.981 1106.01 155.959C1112.06 151.186 1119.77 148.102 1127.4 149.067C1135.03 150.032 1142.3 155.598 1143.83 163.195C1152.07 158.027 1162.21 156.544 1171.88 157.561C1181.51 158.875 1190.89 161.651 1199.7 165.797C1206.54 150.099 1221.34 139.333 1238.28 137.73C1239.04 137.73 1239.8 137.577 1240.5 137.282C1241.72 136.375 1242.56 135.022 1242.82 133.509C1248.55 116.041 1262.64 102.6 1280.26 97.7749L1295.47 188.798L1232.27 200.394L1139.05 202.927L1080.38 209.819L1019.2 186.386L1047.95 134.215L1064.99 134.198Z"
    fill="#ABCEB3"/>
  <path
    d="M1679.97 131.38V214.081L1559.2 217.373L1478.91 226.745L1395.1 194.647L1434.44 123.371H1457.77C1471.18 116.049 1488.4 120.064 1500.81 128.989C1508.62 134.64 1515.6 143.619 1513.91 153.11C1522.18 146.579 1532.72 142.356 1543.21 143.634C1553.69 144.911 1563.6 152.593 1565.68 162.983C1576.93 155.884 1590.84 153.868 1604.05 155.281C1617.25 156.694 1629.95 161.243 1642.14 166.532C1649.35 150.037 1663.07 137.293 1679.97 131.385V131.38Z"
    fill="#ABCEB3"/>
  <path
    d="M721.733 93.9669V95.69C690.141 90.8829 679.295 98.6868 679.295 98.6868V96.9645C679.295 96.9645 690.141 89.1597 721.733 93.9669Z"
    fill="#F4C0B5"/>
  <path
    d="M721.733 93.9669V95.69C690.141 90.8829 679.295 98.6868 679.295 98.6868V96.9645C679.295 96.9645 690.141 89.1597 721.733 93.9669Z"
    fill="#8399AA"/>
  <path
    d="M1583.93 110.315V162.624C1583.93 162.624 1579.01 157.266 1536.88 157.266V102.286L1555.35 100.15L1577.74 105.663L1583.93 110.315Z"
    fill="#F4C0B5"/>
  <path
    d="M1545.24 121.74L1558.15 122.463L1575.79 124.497L1581.86 126.289L1583.94 129.683V141.485L1563.21 138.332L1554.59 135.988L1547.61 134.938L1545.23 130.251L1545.24 121.74Z"
    fill="#9FB0C4"/>
  <path
    d="M1546.77 168.923C1546.77 168.923 1584.25 169.805 1584.25 165.701C1584.25 161.597 1570.36 159.549 1570.36 159.549L1553.95 156.914H1546.25L1546.77 168.975"
    fill="#C8CACC"/>
  <path
    d="M1268.35 157.889V177.896L1540.09 181.272L1539.95 156.91L1535 154.137L1510.87 151.087L1442.25 145.449L1375.22 146.878L1311.66 149.17L1268.35 157.888"
    fill="#C8CACC"/>
  <path
    d="M1119.01 200.041V109.916C1119.01 109.916 1113.49 102.865 1076.57 106.126V196.27C1113.29 193.031 1118.95 199.975 1119.01 200.041Z"
    fill="#F4C0B5"/>
  <path
    d="M1119.01 122.202V136.723C1118.42 136.146 1117.73 135.684 1116.98 135.363L1116.09 134.966C1112.99 133.801 1109.75 133.053 1106.45 132.743L1105.57 132.64C1095.92 131.804 1086.21 131.901 1076.57 132.933V118.411C1086.21 117.38 1095.92 117.282 1105.57 118.119L1106.45 118.222C1109.75 118.532 1112.99 119.28 1116.09 120.445L1116.98 120.858C1117.74 121.163 1118.43 121.621 1119.01 122.202V122.202Z"
    fill="#C1CDD6"/>
  <path
    d="M1076.57 144.034V158.559C1113.49 155.302 1119.01 162.349 1119.01 162.349V147.825C1119.01 147.825 1113.49 140.778 1076.57 144.034Z"
    fill="#C1CDD6"/>
  <path
    d="M1075.65 169.634V184.159C1112.56 180.92 1118.98 187.605 1118.98 187.605V173.08C1118.98 173.08 1112.56 166.378 1075.65 169.634Z"
    fill="#C1CDD6"/>
  <path
    d="M1228.96 14.1555L1234.2 24.6652L1248 30.403L1305.29 26.1645H1345.51L1377.77 22.2704L1381.37 33.918L1384.79 35.5547L1389.72 22.1849L1392.19 10.5903L1371.31 9.76172H1268.49L1228.96 14.1555Z"
    fill="#70615C"/>
  <path d="M1395.04 8.40766V2.29156L1308.05 0L1221.64 4.20425V10.5767L1307.89 6.23498L1395.04 8.40575" fill="black"/>
  <path
    d="M1234.2 30.0785L1221.64 10.5918L1307.89 6.25L1395.04 8.42097L1384.04 46.0713V33.9081L1389.53 12.061L1307.9 10.5962L1228.97 14.1624L1234.2 21.6744V30.082"
    fill="#7F6F69"/>
  <path d="M1272.56 30.8809V15.7017H1344.39V32.5177L1315.66 35.5672L1277.89 33.9306L1272.56 30.8809Z" fill="#9FB0C4"/>
  <path d="M1338.03 16.5796V33.9123L1360.05 38.4954H1370.55L1369.78 23.6607L1369.06 17.0995L1338.03 16.5796Z"
        fill="#E5DBDA"/>
  <path d="M1243.44 18.8521H1273.72V31.3431L1266.13 39.8723H1250.7L1242.1 39.1144L1240.97 30.4513L1243.44 18.8556"
        fill="#E5DBDA"/>
  <path d="M1243.89 15.0825H1236.4V35.62H1243.89V15.0825Z" fill="#F9F0EF"/>
  <path d="M1288.45 13.3774H1280.96V33.9149H1288.45V13.3774Z" fill="#F9F0EF"/>
  <path d="M1336.65 13.3774H1329.16V33.9149H1336.65V13.3774Z" fill="#F9F0EF"/>
  <path d="M1376.54 13.3774H1369.05V33.9149H1376.54V13.3774Z" fill="#F9F0EF"/>
  <path d="M1232.76 60.2266V35.4165L1384.17 33.8828V58.1765L1307.01 64.207H1256.16L1232.76 60.2266Z" fill="#FFD8D2"/>
  <path
    d="M1254.45 59.423V33.8026L1305.68 25.3086V30.6499H1310.52V25.3086L1362.42 31.5807V55.7882L1309.43 61.526L1289.17 64.1958L1254.45 59.423Z"
    fill="#F9F0EF"/>
  <path d="M1224.96 91.5821L1230.21 97.32L1266.41 100.525L1272.67 89.963L1268.79 83.4673L1224.96 91.5821Z"
        fill="#AFAFAF"/>
  <path d="M1306.19 55.877V155.05L1517.15 157.979V59.7709C1517.15 59.7709 1335.27 52.2932 1306.19 55.877Z"
        fill="#C1CDD6"/>
  <path
    d="M679.295 211.143V97.6362C679.295 97.6362 690.139 89.8323 721.733 94.6403V207.267L704.628 216.812L679.295 211.143Z"
    fill="#F4C0B5"/>
  <path
    d="M721.73 106.503V121.028C718.388 120.732 715.041 120.502 711.689 120.338L710.869 120.286C705.739 120.079 701.497 120.11 697.887 120.286H696.998C693.473 120.468 689.967 120.929 686.513 121.665L685.624 121.889C680.493 123.199 679.347 124.731 679.347 124.731V110.225C679.347 110.225 680.561 108.675 685.624 107.383L686.069 107.262L686.513 107.159C689.963 106.405 693.471 105.944 696.998 105.78H697.887C701.497 105.591 705.788 105.556 710.869 105.78H711.759C714.752 105.898 718.087 106.106 721.73 106.503Z"
    fill="#C1CDD6"/>
  <path
    d="M721.752 132.05V146.573C718.41 146.275 715.062 146.051 711.711 145.902H710.821C705.69 145.695 701.448 145.712 697.839 145.902H696.947C693.42 146.067 689.913 146.528 686.462 147.28L685.572 147.504C680.441 148.814 679.295 150.347 679.295 150.347V135.84C679.295 135.84 680.51 134.306 685.572 132.998L686.461 132.774C689.912 132.02 693.42 131.558 696.947 131.392H697.836C701.446 131.204 705.738 131.185 710.819 131.392H711.709C714.774 131.516 718.109 131.723 721.752 132.05Z"
    fill="#C1CDD6"/>
  <path
    d="M721.733 157.612V172.137C684.821 168.898 679.295 175.927 679.295 175.927V161.402C679.295 161.402 684.821 154.373 721.733 157.612Z"
    fill="#C1CDD6"/>
  <path
    d="M721.733 183.237V197.762C684.821 194.505 679.295 201.535 679.295 201.535V187.027C679.295 187.027 684.821 179.981 721.733 183.237Z"
    fill="#C1CDD6"/>
  <path
    d="M873.834 145.14L890.338 146.863L920.114 146.951L937.256 145.812L912.441 141.108L888.063 143.521L873.834 145.14Z"
    fill="#A9BAC4"/>
  <path
    d="M937.203 131.696V145.944C937.203 145.944 900.654 142.498 873.783 145.273V131.041C873.783 131.041 898.974 125.975 937.203 131.696Z"
    fill="#C1CDD6"/>
  <path d="M381.884 113.841L376.615 120.44L366.558 120.061V124.468L358.45 124.21L358.363 113.837L381.884 113.841Z"
        fill="#7F6F69"/>
  <path d="M247.403 97.7569L294.594 97.5674L296.289 223.218L250.107 225.665L247.403 97.7569Z" fill="#F4C0B5"/>
  <path
    d="M275.931 88.0157L282.26 79.349H285.92L294.232 66.8403L309.13 63.3598L323.772 67.0466L324.883 65.1341L309.134 61.5679L293.258 64.7047L285.286 77.1253L281.626 76.9878L273.964 88.0157H275.931Z"
    fill="#70615C"/>
  <path d="M285.948 79.1289H282.22V87.7956H285.948V79.1289Z" fill="black"/>
  <path d="M294.224 66.7847L294.48 89.5968L285.98 87.9602L285.911 79.2917L294.224 66.7847Z" fill="#7F6F69"/>
  <path d="M282.241 79.1289L275.913 87.7929H282.241V79.1289Z" fill="#7F6F69"/>
  <path
    d="M294.455 89.1844L285.953 87.5474H273.932L236.657 89.1342L231.046 108.189H232.569L237.599 92.13H294.523L294.455 89.1844Z"
    fill="#70615C"/>
  <path d="M294.534 92.1445V96.058H237.986L237.61 92.1472L294.534 92.1445Z" fill="#B29D93"/>
  <path d="M237.99 96.0048L234.228 108.151H232.584L237.613 92.0923L237.99 96.0048Z" fill="black"/>
  <path d="M213.152 107.898H245.89V110.861H214.105L213.152 107.898Z" fill="#B29D93"/>
  <path d="M213.152 107.846L212.741 120.389H213.817L214.108 110.809L213.152 107.846Z" fill="black"/>
  <path
    d="M237.988 95.9186L234.226 108.065H245.873V102.845L247.378 98.8783L294.569 98.6888L294.535 95.915L237.988 95.9186Z"
    fill="black"/>
  <path d="M293.754 123.909H250.788V131.266H293.754V123.909Z" fill="#B29D93"/>
  <path d="M250.805 123.909L249.813 125.254V130.596L250.805 131.267V123.909Z" fill="black"/>
  <path d="M294.779 155.934H251.813V163.291H294.779V155.934Z" fill="#B29D93"/>
  <path d="M251.78 155.934L250.788 157.278V162.636L251.78 163.291V155.934Z" fill="black"/>
  <path d="M295.753 185.942H252.787V193.299H295.753V185.942Z" fill="#B29D93"/>
  <path d="M252.806 185.942L251.813 187.286V192.627L252.806 193.299V185.942Z" fill="black"/>
  <path d="M247.37 97.9292L249.269 164.387L249.799 196.864V212.543H248.709L245.865 110.076V101.892L247.37 97.9292Z"
        fill="#F4C0B5"/>
  <path d="M323.758 65.7703L325.93 238.824L295.775 238.255L294.218 65.5641L309.115 62.0835L323.758 65.7703Z"
        fill="black"/>
  <path
    d="M323.065 237.372L298.537 236.907V102.826C298.521 102.55 298.521 102.274 298.537 101.999C298.523 101.698 298.553 101.395 298.625 101.103C299.286 97.096 302.101 93.774 305.925 92.4889C306.216 92.3849 306.513 92.2985 306.814 92.2306C307.644 92.0358 308.493 91.938 309.345 91.938C310.593 91.9362 311.831 92.1522 313.005 92.5753C313.311 92.6793 313.608 92.8062 313.895 92.9543C317.174 94.4597 319.486 97.534 320.036 101.121C320.094 101.417 320.134 101.716 320.156 102.018V102.569L320.362 111.769V112.663L323.065 237.372Z"
    fill="#C1CDD6"/>
  <path d="M318.164 93.2808L370.965 94.0908V97.864L318.197 96.6583L318.164 93.2808Z" fill="#B29D93"/>
  <path d="M318.214 98.0327L358.82 98.9141L361.351 242.471L319.993 238.456L318.214 98.0327Z" fill="#F4C0B5"/>
  <path d="M370.928 97.7431L358.94 106.531L358.786 100.345L318.181 99.4636L318.164 96.5347L370.928 97.7431Z"
        fill="black"/>
  <path d="M318.06 89.2515H337.303L372.111 92.1301L370.931 94.1626L318.129 93.35L318.06 89.2515Z" fill="#70615C"/>
  <path d="M213.818 120.371L246.111 119.303L245.889 110.791H214.11L213.818 120.371Z" fill="#7F6F69"/>
  <path d="M358.312 109.603L374.15 109.982L383.061 110.929L382.821 111.566L358.362 111.704L358.312 109.603Z"
        fill="#70615C"/>
  <path d="M382.823 111.514L381.882 113.894L358.397 113.981L358.363 111.655L382.823 111.513V111.514Z" fill="#B29D93"/>
  <path d="M108.367 123.74L213.782 120.174L225.994 119.777L229.483 125.119L100.91 130.24L108.367 123.74Z"
        fill="#B29D93"/>
  <path d="M366.003 119.933L468.014 123.635L488.368 130.389L380.49 126.943L366.003 119.933Z" fill="#B29D93"/>
  <path
    d="M488.364 130.339L481.043 138.23V135.439L384.917 132.492L381.496 134.284L376.433 131.476L374.928 126.893L366.003 122.051V119.881L380.491 126.893L488.364 130.339Z"
    fill="#7F6F69"/>
  <path d="M480.882 134.297V227.422L382.104 230.093L381.334 133.14L384.756 131.348L480.882 134.297Z" fill="#F4C0B5"/>
  <path
    d="M100.91 130.113L106.501 138.469V135.987L225.479 131.766V134.833L228.901 130.112L229.483 124.995L100.91 130.113Z"
    fill="#7F6F69"/>
  <path d="M106.55 134.639V137.12L107.782 170.27V246.235L226.828 240.481L225.528 133.485V130.417L106.55 134.639Z"
        fill="#F4C0B5"/>
  <path d="M376.447 113.837H374.874V120.436H376.447V113.837Z" fill="black"/>
  <path d="M218.996 110.791H220.605L220.554 120.147L218.996 120.199V110.791Z" fill="black"/>
  <path d="M225.509 136.46H246.581L246.821 145.264H225.629L225.509 136.46Z" fill="black"/>
  <path d="M225.919 166.332L247.402 165.953L247.676 174.171H226.021L225.919 166.332Z" fill="black"/>
  <path d="M358.825 136.46H372.286V145.058L358.979 145.213L358.825 136.46Z" fill="black"/>
  <path d="M359.081 165.726L373.79 165.488V172.552L359.234 172.794L359.081 165.725V165.726Z" fill="black"/>
  <path
    d="M366.448 121.017V135.697H372.144V144.295H366.448V165.331L373.666 165.228V172.293H366.448L366.003 226.635L382.716 230.2L381.945 133.247L376.883 130.439L375.378 125.856L366.448 121.017Z"
    fill="#E2AFA6"/>
  <path
    d="M366.448 121.017V135.697H372.144V144.295H366.448V165.331L373.666 165.228V172.293H366.448L366.003 226.635L382.716 230.2L381.945 133.247L376.883 130.439L375.378 125.856L366.448 121.017Z"
    fill="black"/>
  <path d="M358.619 123.909L366.607 124.271V136.711H358.842L358.619 123.909Z" fill="#D3A9A3"/>
  <path d="M359.03 144.982L366.642 144.828V166.087L359.151 165.999L359.03 144.982Z" fill="#D3A9A3"/>
  <path d="M359.492 171.927L366.606 171.737L366.144 233.385L360.283 232.61L359.492 171.927Z" fill="#D3A9A3"/>
  <path
    d="M226.023 119.726L229.512 125.068L228.93 130.185L225.509 134.906L225.527 136.715H246.599L246.102 119.055L226.023 119.726Z"
    fill="#E2AFA6"/>
  <path d="M225.662 145.035H246.855L247.403 166.245L225.92 166.624L225.662 145.035Z" fill="#E2AFA6"/>
  <path d="M226.022 173.339H247.676L248.753 212.121L226.792 237.12L226.022 173.339Z" fill="#E2AFA6"/>
  <path d="M360.648 123.909H321.189V131.266H360.648V123.909Z" fill="#B29D93"/>
  <path d="M327.154 123.909L326.162 125.254V130.596L327.154 131.267V123.909Z" fill="black"/>
  <path d="M360.648 155.055H321.189V162.412H360.648V155.055Z" fill="#B29D93"/>
  <path d="M327.154 155.055L326.162 156.399V161.758L327.154 162.412V155.055Z" fill="black"/>
  <path d="M360.648 185.942H321.189V193.299H360.648V185.942Z" fill="#B29D93"/>
  <path d="M327.154 185.942L326.162 187.286V192.627L327.154 193.299V185.942Z" fill="black"/>
  <path d="M488.187 130.248L480.866 138.139V135.348L384.736 132.401L381.315 134.193L380.309 126.802L488.187 130.248Z"
        fill="black"/>
  <path d="M100.91 130.164L106.501 136.038L225.479 131.817L229.482 125.046L100.91 130.164Z" fill="black"/>
  <path
    d="M755.183 70.111L755.337 72.3505L771.962 70.8689L783.948 78.4154L785.848 77.0889L772.198 68.5396L755.183 70.111Z"
    fill="#B29D93"/>
  <path d="M755.77 70.0898L724.725 78.3944L726.179 79.549L755.924 72.3296L755.77 70.0898Z" fill="black"/>
  <path
    d="M755.388 71.4169L756.688 203.998L760.502 202.568L758.963 77.4815L781.353 82.0128V199.604L784.005 198.399V77.4815L772.017 69.9351L755.388 71.4169Z"
    fill="#FFD8D2"/>
  <path
    d="M781.316 81.9038V198.583L760.466 202.461L760.176 178.908V177.977L760.039 167.726L760.022 166.812L759.902 156.561V155.648L759.765 145.397L759.748 144.483L759.628 134.232L759.61 133.319V133.302L759.491 123.067L759.473 122.136L759.354 111.879L759.337 110.966L759.217 100.714L759.199 99.8012L758.926 77.3726L781.316 81.9038Z"
    fill="#9FB0C4"/>
  <path d="M726.161 78.6008V207.787L757.206 203.962L755.906 71.3813L726.161 78.6008Z" fill="#F4C0B5"/>
  <path d="M726.161 95.0086L756.06 87.3934V86.98L726.161 94.6816V95.0086Z" fill="#DDA59B"/>
  <path d="M726.161 112.053L756.231 104.404L756.214 103.973L726.161 111.709V112.053Z" fill="#DDA59B"/>
  <path d="M726.161 129.132L756.385 121.43V121.017L726.161 128.788V129.132Z" fill="#DDA59B"/>
  <path d="M726.161 146.16L756.611 138.424L756.559 138.01L726.161 145.833V146.16Z" fill="#DDA59B"/>
  <path d="M726.161 163.256L756.744 155.486V155.055L726.161 162.928V163.256Z" fill="#DDA59B"/>
  <path d="M726.161 180.336L756.915 172.513V172.1L726.161 180.005V180.336Z" fill="#DDA59B"/>
  <path d="M726.161 197.38L757.069 189.506V189.093L726.161 197.053V197.38Z" fill="#636363"/>
  <path
    d="M782.769 86.0503L784.24 86.3261V159.637L862.459 165.599V151.729L891.677 155.744V183.845L865.845 183.052L806.801 191.27L782.769 197.819V86.0503Z"
    fill="#FFD8D2"/>
  <path d="M784.461 159.964V85.6895L862.68 103.695V165.928L784.461 159.964Z" fill="#9FB0C4"/>
  <path d="M861.887 143.272L874.595 145.271V131.039L861.887 127.783L861.886 143.272H861.887Z" fill="#FFD8D2"/>
  <path d="M861.886 118.98L874.082 121.34V106.299L861.886 103.766V118.98Z" fill="#FFD8D2"/>
  <path d="M861.733 143.02L874.441 145.019L890.95 146.739V155.422L861.733 151.41V143.02Z" fill="#9FB0C4"/>
  <path
    d="M860.024 118.692L872.22 121.052C872.22 121.052 918.539 118.915 936.153 122.775L953.259 121.707L953.382 105.735L1052.43 97.3096V162.782L953.46 167.571V154.236L918.933 155.476V147.259L953.46 144.966V130.821L936.022 131.873C936.022 131.873 902.422 126.911 872.646 131.218L859.939 127.961L860.024 118.692Z"
    fill="#9FB0C4"/>
  <path
    d="M873.321 121.297V106.256C873.321 106.256 912.869 101.346 937.255 108.944V123.072C937.255 123.072 921.523 119.505 873.321 121.297Z"
    fill="#C1CDD6"/>
  <path d="M936.599 110.86L953.872 109.81L953.784 121.955L936.599 123.024V110.86Z" fill="#F4C0B5"/>
  <path d="M936.547 131.674L953.994 130.624V144.77L936.599 145.925L936.547 131.674Z" fill="#F4C0B5"/>
  <path d="M890.653 146.429V182.904L895.492 183.214V146.429H890.653Z" fill="#F9F0EF"/>
  <path d="M919.966 146.532H916.544V183.059H919.966V146.532Z" fill="#F9F0EF"/>
  <path d="M895.212 155.423H916.754V146.826L895.212 146.739V155.423Z" fill="#97A7B7"/>
  <path d="M936.914 145.655V154.425L919.773 155.011V146.792L936.914 145.655Z" fill="#97A7B7"/>
  <path d="M874.296 144.983V153.132L890.802 155.39V146.706L874.296 144.983Z" fill="#97A7B7"/>
  <path d="M895.212 167.658H916.754V183.768C916.754 183.768 899.062 183.096 895.212 183.371V167.658Z" fill="#97A7B7"/>
  <path d="M895.212 155.262H916.754V162.532C916.754 162.532 899.062 162.137 895.212 162.411V155.262Z" fill="#C1CDD6"/>
  <path
    d="M918.496 154.693L953.032 153.453V166.841L1051.99 162.051V182.726H918.583V168.477L933.003 168.84V163.395C933.003 163.395 921.899 162.5 918.583 162.413L918.496 154.693Z"
    fill="#F4C0B5"/>
  <path d="M952.795 166.917L954.353 168.157L1051.77 164.247V162.131L952.795 166.917Z" fill="#8399AA"/>
  <path d="M1050.94 97.2065L1058.79 101.911V179.374L1050.94 183.32V97.2065Z" fill="#FFD8D2"/>
  <path d="M1048.01 97.5751V92.7477L1074.58 91.7314V179.327L1058.65 178.793V102.052L1048.01 97.5751Z" fill="#9FB0C4"/>
  <path
    d="M1045.5 97.9237V88.171L1061.3 82.6924L1077.73 86.8967V178.403L1074.57 178.661V91.8588L1048 92.8724V97.6963L1045.5 97.9237Z"
    fill="#F4C0B5"/>
  <path
    d="M1045.5 88.8112L1044.35 89.2765L1043.6 87.4843L1061.3 80.9883L1078.71 85.4685L1077.73 87.5363L1061.3 83.3321L1045.5 88.8112Z"
    fill="black"/>
  <path d="M1077.34 87.4457L1089.99 95.9067L1090.79 93.8055L1078.32 85.3779L1077.34 87.4457Z" fill="#B29D93"/>
  <path d="M1089.99 95.2837V179.192L1077.34 178.606V86.8242L1089.99 95.2837Z" fill="#FFD8D2"/>
  <path d="M719.547 97.7242L726.44 95.8115V207.355H719.547V97.7242Z" fill="#9FB0C4"/>
  <path d="M1583.9 161.718H1574.92V186.443H1583.9V161.718Z" fill="#D9DADB"/>
  <path d="M1546.78 156.45H1537.8V181.174H1546.78V156.45Z" fill="#D9DADB"/>
  <path
    d="M1184.66 136.584V158.242C1199.39 155.969 1214.25 154.731 1229.14 154.54C1247.95 154.54 1276.07 157.469 1276.07 157.469V136.584C1276.07 136.584 1258.11 133.38 1228.64 133.362C1199.17 133.344 1184.66 136.584 1184.66 136.584Z"
    fill="#FFD8D2"/>
  <path
    d="M1184.66 120.211V134.132C1199.39 131.858 1214.25 130.621 1229.14 130.43C1247.95 130.43 1276.07 133.376 1276.07 133.376V120.211C1276.07 120.211 1258.11 117.006 1228.64 116.988C1199.17 116.971 1184.66 120.211 1184.66 120.211Z"
    fill="#C1CDD6"/>
  <path
    d="M1184.66 160.652V177.882H1276.12V160.652C1276.12 160.652 1258.16 157.464 1228.69 157.43C1199.23 157.396 1184.66 160.652 1184.66 160.652Z"
    fill="#C1CDD6"/>
  <path
    d="M1230.07 95.6567C1195.42 95.6567 1184.66 102.273 1184.66 102.273V117.78C1199.39 115.516 1214.25 114.283 1229.14 114.093C1247.95 114.093 1276.07 117.78 1276.07 117.78V102.273C1276.07 102.273 1264.73 95.6567 1230.07 95.6567Z"
    fill="#FFD8D2"/>
  <path
    d="M1184.66 102.342V104.788C1184.66 104.788 1200.74 99.0339 1230.41 99.0674C1260.06 99.1027 1276.13 104.788 1276.13 104.788V102.342C1276.13 102.342 1265.86 95.8115 1230.41 95.8115C1194.42 95.8115 1184.66 102.341 1184.66 102.341V102.342Z"
    fill="#F9F0EF"/>
  <path d="M1224.74 115.903H1214.87V132.151H1224.74V115.903Z" fill="#E8E9EA"/>
  <path d="M1224.74 155.468H1214.87V177.832H1224.74V155.468Z" fill="#E8E9EA"/>
  <path d="M1517.17 59.6944L1517.13 54.9048L1536.89 55.8656V158.054L1517.17 157.985V59.6944Z" fill="#C1CDD6"/>
  <path d="M1517.13 61.1484L1517.02 46.5376L1510 48.8291V60.6486L1517.13 61.1484Z" fill="#F4C0B5"/>
  <path
    d="M1536.88 98.961V102.682C1536.88 102.682 1563.69 100.08 1583.93 110.711V106.99C1583.93 106.99 1569.7 98.1686 1536.88 98.961Z"
    fill="#F9F0EF"/>
  <path
    d="M1536.88 155.107V158.846C1536.88 158.846 1569 158.243 1584.26 165.737V162.016C1584.26 162.016 1574.83 155.056 1536.88 155.107Z"
    fill="#F9F0EF"/>
  <path d="M1536.88 100.724V47.8281L1543.32 50.654V100.724H1536.88Z" fill="#F4C0B5"/>
  <path d="M1517.03 46.5394L1526.74 43.3867L1536.86 47.849V55.1717L1517.08 53.9316L1517.03 46.5394Z" fill="#E2AFA6"/>
  <path d="M1517.08 53.9233L1517.1 56.3524L1536.86 57.3176V55.1634L1517.08 53.9233Z" fill="#F9F0EF"/>
  <path d="M1543.3 50.6951L1545.63 48.3348L1527 39.668L1507.96 45.8537L1510.01 48.8168L1526.73 43.3726L1543.3 50.6951Z"
        fill="black"/>
  <path d="M1507.98 45.8652L1492.52 59.4941L1496.93 59.77L1510.04 48.8292L1507.98 45.8652Z" fill="#7F6F69"/>
  <path d="M1510.03 48.8096V60.6291L1496.93 59.7478L1510.03 48.8096Z" fill="#E2AFA6"/>
  <path
    d="M1224.4 59.1248L1313.19 55.8857V153.612L1275.37 154.507V102.681C1272.06 101.12 1268.57 99.9624 1264.97 99.2352V90.6204L1224.4 91.7918V59.1248Z"
    fill="#D9DADB"/>
  <path
    d="M911.128 137.085C910.804 139.24 908.949 140.849 906.788 140.849C904.373 140.849 902.387 138.85 902.387 136.421C902.387 133.992 904.373 131.993 906.788 131.993C908.057 131.993 909.273 132.55 910.104 133.519L909.177 135.105C908.704 134.233 907.785 133.69 906.797 133.69C905.309 133.69 904.084 134.927 904.084 136.43C904.084 137.933 905.309 139.169 906.797 139.169C907.024 139.169 907.252 139.141 907.47 139.085C908.258 138.892 908.914 138.363 909.282 137.638L910.997 134.796L911.784 133.452C911.539 133.047 911.242 132.676 910.909 132.349C909.842 131.31 908.424 130.728 906.945 130.728C903.83 130.728 901.267 133.31 901.267 136.448C901.267 139.586 903.83 142.168 906.945 142.168C909.947 142.168 912.458 139.765 912.616 136.743L911.128 137.085ZM907.129 137.808C907.024 137.832 906.919 137.844 906.805 137.844C906.027 137.844 905.388 137.199 905.388 136.415C905.388 135.631 906.027 134.986 906.805 134.986C907.462 134.986 908.039 135.443 908.188 136.085C908.223 136.215 908.24 136.349 908.24 136.484C908.24 137.13 907.812 137.702 907.199 137.877L907.129 137.808Z"
    fill="#CE93AE"/>
  <path d="M1516.99 60.9478H1495.75V82.8813H1516.99V60.9478Z" fill="#F4C0B5"/>
  <path d="M1517 79.2837H1504.78V98.3734H1517V79.2837Z" fill="#F4C0B5"/>
  <path d="M1516.99 119.725L1495.75 118.829V97.9292H1516.99V119.725Z" fill="#F4C0B5"/>
  <path d="M1517 157.638H1495.76L1490.57 135.118L1516.99 133.981L1517 157.638Z" fill="#F4C0B5"/>
  <path d="M1547.5 136.852L1536.88 136.542V120.604H1547.5V136.852Z" fill="#97A7B7"/>
  <path d="M1517 116.42H1504.78V135.511H1517V116.42Z" fill="#F4C0B5"/>
  <path d="M1323.32 76.6489H1312.7V95.7392H1323.32V76.6489Z" fill="#F4C0B5"/>
  <path d="M1496.61 118.193L1306.19 114.333V95.2432H1391.68L1499.45 97.7931L1496.61 118.193Z" fill="#F4C0B5"/>
  <path d="M1495.78 157.71L1306.19 155.004V131.348L1493.87 135.19L1495.78 157.71Z" fill="#F4C0B5"/>
  <path d="M1323.32 113.786H1312.7V132.876H1323.32V113.786Z" fill="#F4C0B5"/>
  <path d="M1335.95 49.0688H1281.68V58.476H1335.95V49.0688Z" fill="#9FB0C4"/>
  <path d="M1495.78 82.0415L1306.19 77.0793V55.2666H1327.44L1503.49 60.1424L1495.78 82.0415Z" fill="#F4C0B5"/>
  <path d="M1310.2 122.618H1297.52V135.024H1310.2V122.618Z" fill="#C1CDD6"/>
  <path d="M1291.02 122.618H1278.35V135.024H1291.02V122.618Z" fill="#C1CDD6"/>
  <path d="M1310.2 93.7466H1297.52V106.152H1310.2V93.7466Z" fill="#C1CDD6"/>
  <path d="M1291.02 93.7466H1278.35V106.152H1291.02V93.7466Z" fill="#C1CDD6"/>
  <path
    d="M934.569 163.452V168.897C934.569 168.897 902.325 167.76 876.145 168.897V163.452C895.57 161.553 915.135 161.553 934.569 163.452Z"
    fill="#9FB0C4"/>
  <path d="M0.666626 247.836L81.1089 229.573V226.178L0.666626 239.308V247.836Z" fill="#E2AFA6"/>
  <path d="M81.1089 228.192L0.666626 246.456V284.671L72.6073 245.731L81.1078 241.131L81.1089 228.192Z" fill="#FFD8D2"/>
  <g opacity="0.3">
    <g opacity="0.3">
      <path opacity="0.3" d="M404.967 143.744H389.077V158.904H404.967V143.744Z" fill="#C1CDD6"/>
    </g>
  </g>
  <g opacity="0.3">
    <g opacity="0.3">
      <path opacity="0.3" d="M428.81 143.744H412.92V158.904H428.81V143.744Z" fill="#C1CDD6"/>
    </g>
  </g>
  <g opacity="0.3">
    <g opacity="0.3">
      <path opacity="0.3" d="M452.601 143.744H436.712V158.904H452.601V143.744Z" fill="#C1CDD6"/>
    </g>
  </g>
  <g opacity="0.3">
    <g opacity="0.3">
      <path opacity="0.3" d="M476.393 143.744H460.503V158.904H476.393V143.744Z" fill="#C1CDD6"/>
    </g>
  </g>
  <g opacity="0.3">
    <path opacity="0.3" d="M404.967 162.234H389.077V177.395H404.967V162.234Z" fill="#C1CDD6"/>
  </g>
  <g opacity="0.3">
    <g opacity="0.3">
      <path opacity="0.3" d="M428.81 162.234H412.92V177.395H428.81V162.234Z" fill="#C1CDD6"/>
    </g>
  </g>
  <g opacity="0.3">
    <g opacity="0.3">
      <path opacity="0.3" d="M452.601 162.234H436.712V177.395H452.601V162.234Z" fill="#C1CDD6"/>
    </g>
  </g>
  <g opacity="0.3">
    <g opacity="0.3">
      <path opacity="0.3" d="M476.393 162.234H460.503V177.395H476.393V162.234Z" fill="#C1CDD6"/>
    </g>
  </g>
  <g opacity="0.3">
    <path opacity="0.3" d="M404.967 180.726H389.077V195.886H404.967V180.726Z" fill="#C1CDD6"/>
  </g>
  <g opacity="0.3">
    <g opacity="0.3">
      <path opacity="0.3" d="M428.81 180.726H412.92V195.886H428.81V180.726Z" fill="#C1CDD6"/>
    </g>
  </g>
  <g opacity="0.3">
    <g opacity="0.3">
      <path opacity="0.3" d="M452.601 180.726H436.712V195.886H452.601V180.726Z" fill="#C1CDD6"/>
    </g>
  </g>
  <g opacity="0.3">
    <g opacity="0.3">
      <path opacity="0.3" d="M476.393 180.726H460.503V195.886H476.393V180.726Z" fill="#C1CDD6"/>
    </g>
  </g>
  <g opacity="0.3">
    <g opacity="0.3">
      <path opacity="0.3" d="M404.967 199.216H389.077V214.376H404.967V199.216Z" fill="#C1CDD6"/>
    </g>
  </g>
  <g opacity="0.3">
    <g opacity="0.3">
      <path opacity="0.3" d="M428.81 199.216H412.92V214.376H428.81V199.216Z" fill="#C1CDD6"/>
    </g>
  </g>
  <g opacity="0.3">
    <g opacity="0.3">
      <path opacity="0.3" d="M452.601 199.216H436.712V214.376H452.601V199.216Z" fill="#C1CDD6"/>
    </g>
  </g>
  <g opacity="0.3">
    <g opacity="0.3">
      <path opacity="0.3" d="M476.393 199.216H460.503V214.376H476.393V199.216Z" fill="#C1CDD6"/>
    </g>
  </g>
  <g opacity="0.3">
    <path opacity="0.3" d="M208.48 140.592L192.59 141.126L193 156.287L208.89 155.752L208.48 140.592Z" fill="#C1CDD6"/>
  </g>
  <g opacity="0.3">
    <g opacity="0.3">
      <path opacity="0.3" d="M184.227 141.317L168.337 141.869L168.73 157.013L184.62 156.479L184.227 141.32"
            fill="#C1CDD6"/>
    </g>
  </g>
  <g opacity="0.3">
    <g opacity="0.3">
      <path opacity="0.3" d="M159.991 142.039L144.083 142.59L144.511 157.735L160.385 157.219L159.991 142.039Z"
            fill="#C1CDD6"/>
    </g>
  </g>
  <g opacity="0.3">
    <path opacity="0.3" d="M135.754 142.762L119.882 143.278L120.276 158.437L136.148 157.921L135.754 142.762Z"
          fill="#C1CDD6"/>
  </g>
  <g opacity="0.3">
    <path opacity="0.3" d="M209.044 159.083L193.154 159.618L193.548 174.778L209.438 174.244L209.044 159.083Z"
          fill="#C1CDD6"/>
  </g>
  <g opacity="0.3">
    <path opacity="0.3" d="M184.791 159.807L168.901 160.323L169.311 175.483L185.201 174.949L184.791 159.807Z"
          fill="#C1CDD6"/>
  </g>
  <g opacity="0.3">
    <g opacity="0.3">
      <path opacity="0.3" d="M160.538 160.532L144.648 161.067L145.058 176.227L160.931 175.675L160.538 160.53"
            fill="#C1CDD6"/>
    </g>
  </g>
  <g opacity="0.3">
    <g opacity="0.3">
      <path opacity="0.3" d="M136.319 161.202L120.445 161.736L120.839 176.896L136.747 176.362L136.319 161.202Z"
            fill="#C1CDD6"/>
    </g>
  </g>
  <g opacity="0.3">
    <g opacity="0.3">
      <path opacity="0.3" d="M209.608 177.577L193.718 178.093L194.112 193.253L210.019 192.719L209.609 177.574"
            fill="#C1CDD6"/>
    </g>
  </g>
  <g opacity="0.3">
    <path opacity="0.3" d="M185.355 178.298L169.465 178.832L169.875 193.977L185.748 193.443L185.355 178.298Z"
          fill="#C1CDD6"/>
  </g>
  <g opacity="0.3">
    <path opacity="0.3" d="M161.085 179.021L145.211 179.555L145.605 194.7L161.495 194.183L161.085 179.023"
          fill="#C1CDD6"/>
  </g>
  <g opacity="0.3">
    <g opacity="0.3">
      <path opacity="0.3" d="M136.866 179.692L120.958 180.227L121.369 195.386L137.259 194.852L136.865 179.692"
            fill="#C1CDD6"/>
    </g>
  </g>
  <g opacity="0.3">
    <g opacity="0.3">
      <path opacity="0.3" d="M210.172 196.014L194.282 196.566L194.693 211.71L210.566 211.195L210.172 196.015"
            fill="#C1CDD6"/>
    </g>
  </g>
  <g opacity="0.3">
    <g opacity="0.3">
      <path opacity="0.3" d="M185.902 196.789L170.029 197.306L170.423 212.465L186.313 211.948L185.902 196.789Z"
            fill="#C1CDD6"/>
    </g>
  </g>
  <g opacity="0.3">
    <g opacity="0.3">
      <path opacity="0.3" d="M161.683 197.459L145.776 197.994L146.186 213.154L162.076 212.62L161.682 197.459"
            fill="#C1CDD6"/>
    </g>
  </g>
  <g opacity="0.3">
    <g opacity="0.3">
      <path opacity="0.3" d="M137.412 198.185L121.522 198.719L121.916 213.879L137.806 213.363L137.412 198.183"
            fill="#C1CDD6"/>
    </g>
  </g>
  <path d="M862.68 155.406L784.461 147.291V146.378L862.68 154.51V155.405V155.406Z" fill="#A9BED3"/>
  <path d="M862.68 143.683L784.461 132.725V131.812L862.68 142.77V143.683Z" fill="#A9BED3"/>
  <path d="M862.68 132.976L784.461 118.986V118.073L862.68 132.06V132.976Z" fill="#A9BED3"/>
  <path d="M862.68 121.735L784.461 106.59V105.677L862.68 120.819V121.735Z" fill="#A9BED3"/>
  <path d="M862.68 111.199L784.461 94.71V93.7969L862.68 110.286V111.199Z" fill="#A9BED3"/>
  <path d="M796.682 160.841L795.794 160.773V88.167L796.682 88.3741V160.841Z" fill="#A9BED3"/>
  <path d="M808.322 161.701L807.433 161.649V90.8535L808.322 91.0606V161.701Z" fill="#A9BED3"/>
  <path d="M819.244 162.527L818.354 162.458V93.3843L819.244 93.5905V162.527Z" fill="#A9BED3"/>
  <path d="M829.909 163.282L829.02 163.23V95.8115L829.909 96.0187V163.282Z" fill="#A9BED3"/>
  <path d="M841.497 164.142L840.607 164.073V98.498L841.497 98.7052V164.142Z" fill="#A9BED3"/>
  <path d="M852.418 164.915L851.529 164.863V100.977L852.418 101.184V164.915Z" fill="#A9BED3"/>
  <path d="M874.433 131.201L873.527 130.959V120.966L873.971 121.054H874.433V131.201Z" fill="#A9BED3"/>
  <path d="M884.572 120.759H883.679V130.132H884.572V120.759Z" fill="#A9BED3"/>
  <path d="M895.334 120.604H894.45V129.581H895.334V120.604Z" fill="#A9BED3"/>
  <path d="M906.053 120.656H905.16V129.477H906.053V120.656Z" fill="#A9BED3"/>
  <path d="M916.824 120.914H915.932V129.941H916.824V120.914Z" fill="#A9BED3"/>
  <path d="M927.534 121.585H926.65V130.734H927.534V121.585Z" fill="#A9BED3"/>
  <path d="M874.929 153.253L874.039 153.132V144.983L874.484 145.052L874.928 145.104L874.929 153.253Z" fill="#A9BED3"/>
  <path d="M906.053 146.791H905.16V155.389H906.053V146.791Z" fill="#A9BED3"/>
  <path d="M916.597 146.791H915.932V155.389H916.597V146.791Z" fill="#A9BED3"/>
  <path d="M927.534 146.326H926.65V154.769H927.534V146.326Z" fill="#A9BED3"/>
  <path d="M937.177 131.834L936.678 131.853L936.284 131.801V122.722L936.731 122.81L937.177 122.791V131.834Z"
        fill="#A9BED3"/>
  <path d="M862.434 128.135L861.99 128.014V118.745L862.434 118.833V128.135Z" fill="#A9BED3"/>
  <path d="M862.486 151.551L861.99 151.463V143.072L862.486 143.141V151.551Z" fill="#A9BED3"/>
  <path d="M945.743 122.309H944.85V131.321H945.743V122.309Z" fill="#A9BED3"/>
  <path d="M945.743 154.115L944.85 154.132V145.155L945.743 145.086V154.115Z" fill="#A9BED3"/>
  <path d="M953.854 144.57H953.417V153.84H953.854V144.57Z" fill="#A9BED3"/>
  <path d="M964.407 167.033L963.514 167.068V104.867L964.407 104.798V167.033Z" fill="#A9BED3"/>
  <path d="M973.734 166.549L972.85 166.583V104.041L973.734 103.973V166.549Z" fill="#A9BED3"/>
  <path d="M983.018 166.122L982.125 166.174V103.286L983.018 103.198V166.122Z" fill="#A9BED3"/>
  <path d="M991.479 165.726L990.587 165.777V102.562L991.479 102.474V165.726Z" fill="#A9BED3"/>
  <path d="M999.118 165.365L998.532 101.891L999.424 101.803L1000.01 165.329L999.118 165.365Z" fill="#A9BED3"/>
  <path d="M1007.6 164.952L1006.9 101.169L1007.78 101.081L1008.48 164.916L1007.6 164.952Z" fill="#A9BED3"/>
  <path d="M1016.13 164.572L1015.2 100.477L1016.09 100.409L1016.98 164.537L1016.13 164.572Z" fill="#A9BED3"/>
  <path d="M1024.79 164.143L1023.41 99.7737L1024.29 99.6855L1025.67 164.106L1024.79 164.143Z" fill="#A9BED3"/>
  <path d="M1034.26 163.678L1032.89 98.947L1033.78 98.8589L1035.15 163.641L1034.26 163.678Z" fill="#A9BED3"/>
  <path d="M1043.47 163.281L1042.58 163.315V98.1532L1043.47 98.0845V163.281Z" fill="#A9BED3"/>
  <path d="M952.647 110.935V110.039L1051.73 101.803V102.7L952.647 110.935Z" fill="#A9BED3"/>
  <path d="M952.594 121.006L952.612 120.093L1051.77 113.631V114.527L952.594 121.006Z" fill="#A9BED3"/>
  <path d="M953.837 130.801L953.399 130.836L953.207 121.757L953.635 121.74L953.837 130.801Z" fill="#A9BED3"/>
  <path d="M952.76 131.076L952.743 130.181L1051.73 124.271V125.167L952.76 131.076Z" fill="#A9BED3"/>
  <path d="M952.795 140.942L952.743 140.05L1051.73 134.136V135.031L952.795 140.942Z" fill="#A9BED3"/>
  <path d="M952.743 150.802V149.907L1051.73 144.001V144.897L952.743 150.802Z" fill="#A9BED3"/>
  <path d="M952.795 160.638L952.743 159.742L1051.73 153.815V154.711L952.795 160.638Z" fill="#A9BED3"/>
  <path d="M1056.13 101.482L1055.25 101.103V93.0742H1056.13V101.482Z" fill="#A9BED3"/>
  <path d="M1064.07 92.102L1064.95 92.0923L1065.87 178.511L1064.98 178.521L1064.07 92.102Z" fill="#A9BED3"/>
  <path d="M1055.68 101.322L1053.71 100.495L1074.51 99.7368L1074.54 100.634L1055.68 101.322Z" fill="#A9BED3"/>
  <path d="M1055.5 107.942L1071.44 107.381L1071.46 108.278L1055.54 108.837L1055.5 107.942Z" fill="#A9BED3"/>
  <path d="M1055.5 115.689L1071.44 115.129L1071.46 116.025L1055.54 116.585L1055.5 115.689Z" fill="#A9BED3"/>
  <path d="M1055.5 123.489L1071.44 122.928L1071.46 123.824L1055.54 124.384L1055.5 123.489Z" fill="#A9BED3"/>
  <path d="M1058.53 131.759L1074.47 131.038L1074.51 131.933L1058.57 132.654L1058.53 131.759Z" fill="#A9BED3"/>
  <path d="M1055.5 139.087L1071.44 138.526L1071.46 139.423L1055.54 139.982L1055.5 139.087Z" fill="#A9BED3"/>
  <path d="M1055.5 146.834L1071.44 146.274L1071.46 147.17L1055.54 147.731L1055.5 146.834Z" fill="#A9BED3"/>
  <path d="M1055.5 154.634L1071.44 154.074L1071.46 154.969L1055.54 155.53L1055.5 154.634Z" fill="#A9BED3"/>
  <path d="M1055.5 162.433L1071.44 161.873L1071.46 162.769L1055.54 163.329L1055.5 162.433Z" fill="#A9BED3"/>
  <path d="M1058.53 170.755L1074.47 170.035L1074.51 170.929L1058.57 171.65L1058.53 170.755Z" fill="#A9BED3"/>
  <path d="M774.583 182.657L774.052 80.627L774.959 80.8032L775.472 182.664L774.583 182.657Z" fill="#A9BED3"/>
  <path d="M766.31 182.937L764.874 78.7671L765.763 78.9566L767.2 182.919L766.31 182.937Z" fill="#A9BED3"/>
  <path d="M723.462 96.8452V190.143H722.572V97.0867L723.462 96.8452Z" fill="#A9BED3"/>
  <path d="M781.316 94.8174L759.08 90.2173V89.3042L781.316 93.9042V94.8174Z" fill="#A9BED3"/>
  <path d="M781.298 104.836V105.749L759.2 101.166L759.183 100.253L781.298 104.836Z" fill="#A9BED3"/>
  <path d="M781.316 115.804V116.717L759.354 112.168L759.337 111.255L781.316 115.804Z" fill="#A9BED3"/>
  <path d="M781.332 126.736V127.649L759.507 123.136L759.49 122.206L781.332 126.736Z" fill="#A9BED3"/>
  <path d="M781.297 137.633V138.564L759.61 134.069L759.593 133.156L781.297 137.633Z" fill="#A9BED3"/>
  <path d="M781.315 148.62V149.534L759.764 145.07L759.746 144.157L781.315 148.62Z" fill="#A9BED3"/>
  <path d="M781.311 159.532V160.448L759.9 156.02V155.107L781.311 159.532Z" fill="#A9BED3"/>
  <path d="M781.298 170.462V171.375L760.02 166.968L760.003 166.055L781.298 170.462Z" fill="#A9BED3"/>
  <path d="M781.298 181.4V182.312L760.156 177.94V177.006L781.298 181.4Z" fill="#A9BED3"/>
  <path d="M936.879 108.434C931.314 106.715 925.583 105.6 919.773 105.108V183.537L936.879 183.09V108.434Z"
        fill="#8399AA"/>
  <path d="M686.646 107.175V121.683L685.756 121.907V107.399L686.201 107.278L686.646 107.175Z" fill="#A9BED3"/>
  <path d="M697.824 105.78V120.339H696.934V105.832C697.191 105.798 697.516 105.798 697.824 105.78Z" fill="#A9BED3"/>
  <path d="M711.445 105.781V120.305H710.625V105.729L711.445 105.781Z" fill="#A9BED3"/>
  <path d="M686.646 198.504V183.979L685.756 184.203V198.727L686.646 198.504Z" fill="#A9BED3"/>
  <path d="M697.824 182.637H696.934V197.161H697.824V182.637Z" fill="#A9BED3"/>
  <path d="M711.463 182.637H710.574V197.161H711.463V182.637Z" fill="#A9BED3"/>
  <path d="M686.646 172.885V158.36L685.756 158.584V173.109L686.646 172.885Z" fill="#A9BED3"/>
  <path d="M697.824 156.967V171.491H696.934V157.018L697.824 156.967Z" fill="#A9BED3"/>
  <path d="M711.463 157.001V171.525H710.574V156.967L711.463 157.001Z" fill="#A9BED3"/>
  <path d="M686.646 147.317V132.793L685.756 133.017V147.542L686.646 147.318V147.317Z" fill="#A9BED3"/>
  <path d="M697.824 131.398V145.923H696.934V131.451L697.824 131.398Z" fill="#A9BED3"/>
  <path d="M711.463 131.433V145.957H710.574V131.398L711.463 131.433Z" fill="#A9BED3"/>
  <path d="M1116.74 146.464V160.92L1115.85 160.523V146.068L1116.74 146.464Z" fill="#A9BED3"/>
  <path d="M1105.49 143.744V158.269L1106.38 158.39V143.882L1105.49 143.744Z" fill="#A9BED3"/>
  <path d="M1116.74 172.031V186.556L1115.85 186.159V171.634L1116.74 172.031Z" fill="#A9BED3"/>
  <path d="M1105.49 169.363V183.871L1106.38 183.991V169.448L1105.49 169.363Z" fill="#A9BED3"/>
  <path d="M1116.74 120.794V135.319L1115.85 134.922V120.397L1116.74 120.794Z" fill="#A9BED3"/>
  <path d="M1105.49 118.125V132.65L1106.38 132.77V118.227L1105.49 118.125Z" fill="#A9BED3"/>
  <path d="M1095.31 117.608H1094.42V132.133H1095.31V117.608Z" fill="#A9BED3"/>
  <path d="M1095.31 143.228H1094.42V157.752H1095.31V143.228Z" fill="#A9BED3"/>
  <path d="M1095.31 168.793H1094.42V183.318H1095.31V168.793Z" fill="#A9BED3"/>
  <path d="M1057.14 101.253V101.132L1062.46 101.89V177.734L1058.71 177.646V101.907L1057.14 101.253Z" fill="#8399AA"/>
  <path d="M719.547 106.746V105.816L726.44 104.334V105.247L719.547 106.746Z" fill="#A9BED3"/>
  <path d="M719.547 114.958V114.045L726.44 112.546V113.477L719.547 114.958Z" fill="#A9BED3"/>
  <path d="M719.547 123.242V122.344L726.44 120.863V121.776L719.547 123.242Z" fill="#A9BED3"/>
  <path d="M719.547 131.539V130.625L726.44 129.127V130.04L719.547 131.539Z" fill="#A9BED3"/>
  <path d="M719.547 139.785V138.872L726.44 137.391V138.304L719.547 139.785Z" fill="#A9BED3"/>
  <path d="M719.547 148.067V147.136L726.44 145.655V146.568L719.547 148.067Z" fill="#A9BED3"/>
  <path d="M719.547 156.28V155.367L726.44 153.868V154.781L719.547 156.28Z" fill="#A9BED3"/>
  <path d="M719.547 164.577V163.664L726.44 162.182V163.095L719.547 164.577Z" fill="#A9BED3"/>
  <path d="M719.547 172.86V171.928L726.44 170.447V171.36L719.547 172.86Z" fill="#A9BED3"/>
  <path d="M719.547 181.072V180.158L726.44 178.66V179.59L719.547 181.072Z" fill="#A9BED3"/>
  <path d="M719.445 188.466L726.336 186.975L726.523 187.851L719.631 189.342L719.444 188.466H719.445Z" fill="#A9BED3"/>
  <path d="M1191.71 119.261H1190.82V133.235H1191.71V119.261Z" fill="#CAD6DD"/>
  <path d="M1204.32 117.764H1203.43V131.737H1204.32V117.764Z" fill="#CAD6DD"/>
  <path d="M1235.75 117.091H1234.86V131.065H1235.75V117.091Z" fill="#CAD6DD"/>
  <path d="M1247.6 117.091H1246.71V131.065H1247.6V117.091Z" fill="#CAD6DD"/>
  <path d="M1259.85 118.176H1258.97V132.15H1259.85V118.176Z" fill="#CAD6DD"/>
  <path d="M1272.42 119.261H1271.52V133.235H1272.42V119.261Z" fill="#CAD6DD"/>
  <path d="M1191.71 159.497H1190.82V180.379H1191.71V159.497Z" fill="#CAD6DD"/>
  <path d="M1204.32 158.05H1203.43V178.932H1204.32V158.05Z" fill="#CAD6DD"/>
  <path d="M1235.75 157.328H1234.86V178.21H1235.75V157.328Z" fill="#CAD6DD"/>
  <path d="M1247.6 157.328H1246.71V178.21H1247.6V157.328Z" fill="#CAD6DD"/>
  <path d="M1259.85 158.464H1258.97V179.347H1259.85V158.464Z" fill="#CAD6DD"/>
  <path d="M1272.42 159.497H1271.52V180.379H1272.42V159.497Z" fill="#CAD6DD"/>
  <path d="M1314 151.543H1275.16V158.039H1314V151.543Z" fill="#F9F0EF"/>
  <path d="M1339.18 79.4385H1338.29V93.5494H1339.18V79.4385Z" fill="#CAD6DD"/>
  <path d="M1351.02 79.4385H1350.13V94.0659H1351.02V79.4385Z" fill="#CAD6DD"/>
  <path d="M1369.07 79.4385H1368.17V94.3938H1369.07V79.4385Z" fill="#CAD6DD"/>
  <path d="M1387.12 80.0586H1386.23V94.067H1387.12V80.0586Z" fill="#CAD6DD"/>
  <path d="M1405.12 80.3682H1404.22V94.3928H1405.12V80.3682Z" fill="#CAD6DD"/>
  <path d="M1423.17 81.1943H1422.28V94.6164H1423.17V81.1943Z" fill="#CAD6DD"/>
  <path d="M1441.21 81.6079H1440.33V95.5123H1441.21V81.6079Z" fill="#CAD6DD"/>
  <path d="M1339.18 116.266H1338.29V130.376H1339.18V116.266Z" fill="#CAD6DD"/>
  <path d="M1351.02 116.266H1350.13V130.892H1351.02V116.266Z" fill="#CAD6DD"/>
  <path d="M1369.07 116.266H1368.17V131.22H1369.07V116.266Z" fill="#CAD6DD"/>
  <path d="M1387.12 117.711H1386.23V131.719H1387.12V117.711Z" fill="#CAD6DD"/>
  <path d="M1405.12 117.711H1404.22V131.736H1405.12V117.711Z" fill="#CAD6DD"/>
  <path d="M1423.17 118.642H1422.28V132.064H1423.17V118.642Z" fill="#CAD6DD"/>
  <path d="M1441.21 118.899H1440.33V132.804H1441.21V118.899Z" fill="#CAD6DD"/>
  <path d="M1551.08 122.825V134.335" stroke="#AEBECE" stroke-width="0.000521185"/>
  <path d="M1563.48 124.064V135.573" stroke="#AEBECE" stroke-width="0.000521185"/>
  <path d="M1575.79 126.337V138.088" stroke="#AEBECE" stroke-width="0.000521185"/>
  <path d="M1290.77 49.0688H1289.88V58.476H1290.77V49.0688Z" fill="#AEBECE"/>
  <path d="M1300.15 49.0688H1299.27V58.476H1300.15V49.0688Z" fill="#AEBECE"/>
  <path d="M1309.28 49.0688H1308.4V58.476H1309.28V49.0688Z" fill="#AEBECE"/>
  <path d="M1319.33 49.0688H1318.44V53.9791H1319.33V49.0688Z" fill="#AEBECE"/>
  <path d="M1328.35 49.0688H1327.47V53.7729H1328.35V49.0688Z" fill="#AEBECE"/>
  <path d="M1281.12 22.21H1273.47V23.1063H1281.12V22.21Z" fill="#AEBECE"/>
  <path d="M1344.19 22.21H1336.54V23.1063H1344.19V22.21Z" fill="#AEBECE"/>
  <path d="M1329.41 22.21H1287.83V23.1063H1329.41V22.21Z" fill="#AEBECE"/>
  <path d="M1335.95 53.5098H1281.68V54.4062H1335.95V53.5098Z" fill="#AEBECE"/>
  <path d="M1279.55 15.7017H1278.65V30.0022H1279.55V15.7017Z" fill="#AEBECE"/>
  <path d="M1291.08 15.7017H1290.19V27.9003H1291.08V15.7017Z" fill="#AEBECE"/>
  <path d="M1301.85 15.7017H1300.96V26.177H1301.85V15.7017Z" fill="#AEBECE"/>
  <path d="M1315.64 15.7017H1314.75V26.177H1315.64V15.7017Z" fill="#AEBECE"/>
  <path d="M1325.13 15.7017H1324.23V27.039H1325.13V15.7017Z" fill="#AEBECE"/>
  <path d="M1338.35 15.7017H1337.46V28.6581H1338.35V15.7017Z" fill="#AEBECE"/>
  <path
    d="M1306.19 54.0113V57.3369C1306.19 57.3369 1423.42 57.3368 1517.15 64.2284V61.1435C1517.15 61.1435 1410.9 52.9934 1306.19 54.0113Z"
    fill="#F9F0EF"/>
  <path
    d="M1517.17 59.3984L1522.49 64.3951V182.211L1515.39 182.176V160.743H1517.17V157.693H1517.03V138.997H1517.17V135.948L1517.03 135.93V122.321H1517.17V119.254H1517.03V100.646H1517.17V97.5962L1517.03 97.5786V85.8975H1517.17V82.8479L1517.03 82.8303V62.4657H1517.17V59.3984Z"
    fill="#8399AA"/>
  <path d="M389.077 143.691V145.296H403.736V158.907H404.985V143.691H389.077Z" fill="#A5B8C4"/>
  <path d="M412.869 143.691V145.296H427.527V158.907H428.776V143.691H412.869Z" fill="#A5B8C4"/>
  <path d="M389.077 162.182V163.785H403.736V177.396H404.985V162.182H389.077Z" fill="#A5B8C4"/>
  <path d="M412.869 162.182V163.785H427.527V177.396H428.776V162.182H412.869Z" fill="#A5B8C4"/>
  <path d="M389.077 180.726V182.33H403.736V195.942H404.985V180.726H389.077Z" fill="#A5B8C4"/>
  <path d="M412.869 180.726V182.33H427.527V195.942H428.776V180.726H412.869Z" fill="#A5B8C4"/>
  <path d="M389.077 199.216V200.819H403.736V214.43H404.985V199.216H389.077Z" fill="#A5B8C4"/>
  <path d="M412.869 199.216V200.819H427.527V214.43H428.776V199.216H412.869Z" fill="#A5B8C4"/>
  <path d="M436.712 143.691V145.296H451.371V158.907H452.62V143.691H436.712Z" fill="#A5B8C4"/>
  <path d="M460.503 143.691V145.296H475.179V158.907H476.427V143.691H460.503Z" fill="#A5B8C4"/>
  <path d="M436.712 162.182V163.785H451.371V177.396H452.62V162.182H436.712Z" fill="#A5B8C4"/>
  <path d="M460.503 162.182V163.785H475.179V177.396H476.427V162.182H460.503Z" fill="#A5B8C4"/>
  <path d="M436.712 180.726V182.33H451.371V195.942H452.62V180.726H436.712Z" fill="#A5B8C4"/>
  <path d="M460.503 180.726V182.33H475.179V195.942H476.427V180.726H460.503Z" fill="#A5B8C4"/>
  <path d="M436.712 199.216V200.819H451.371V214.43H452.62V199.216H436.712Z" fill="#A5B8C4"/>
  <path d="M460.503 199.216V200.819H475.179V214.43H476.427V199.216H460.503Z" fill="#A5B8C4"/>
  <path d="M122.071 176.845L121.661 163.371L136.268 162.974V161.253L120.343 161.769L120.787 176.879L122.071 176.845Z"
        fill="#A5B8C4"/>
  <path d="M121.558 158.354L121.148 144.881L135.755 144.484V142.762L119.83 143.278L120.275 158.388L121.558 158.354Z"
        fill="#A5B8C4"/>
  <path d="M122.682 195.335L122.288 181.862L136.895 181.465V179.743L120.958 180.263L121.403 195.391L122.682 195.335Z"
        fill="#A5B8C4"/>
  <path d="M123.298 213.844L122.892 200.353L137.498 199.957V198.234L121.574 198.751L122.017 213.879L123.298 213.844Z"
        fill="#A5B8C4"/>
  <path d="M145.812 157.631L145.418 144.157L160.025 143.761V142.039L144.083 142.555L144.528 157.683L145.812 157.631Z"
        fill="#A5B8C4"/>
  <path d="M146.423 176.123L146.016 162.649L160.624 162.252V160.53L144.699 161.046L145.142 176.157L146.423 176.123Z"
        fill="#A5B8C4"/>
  <path d="M146.837 194.613L146.443 181.139L161.051 180.743V179.021L145.109 179.537L145.554 194.648L146.837 194.613Z"
        fill="#A5B8C4"/>
  <path d="M147.504 213.07L147.11 199.579L161.717 199.183V197.459L145.776 197.976L146.22 213.103L147.504 213.07Z"
        fill="#A5B8C4"/>
  <path d="M170.629 175.399L170.235 161.926L184.842 161.529V159.807L168.901 160.324L169.346 175.45L170.629 175.399Z"
        fill="#A5B8C4"/>
  <path d="M170.013 156.927L169.604 143.453L184.21 143.039V141.317L168.286 141.851L168.731 156.962L170.013 156.927Z"
        fill="#A5B8C4"/>
  <path d="M171.141 193.908L170.731 180.418L185.354 180.021V178.298L169.414 178.832L169.858 193.943L171.141 193.908Z"
        fill="#A5B8C4"/>
  <path d="M171.756 212.398L171.362 198.924L185.97 198.51V196.789L170.029 197.326L170.491 212.437L171.756 212.398Z"
        fill="#A5B8C4"/>
  <path d="M194.883 174.728L194.472 161.254L209.079 160.858V159.136L193.154 159.653L193.599 174.763L194.883 174.728Z"
        fill="#A5B8C4"/>
  <path d="M194.267 156.237L193.874 142.763L208.48 142.367V140.645L192.539 141.161L192.984 156.289L194.267 156.237Z"
        fill="#A5B8C4"/>
  <path d="M195.959 211.676L195.548 198.185L210.156 197.789V196.065L194.231 196.582L194.675 211.709L195.959 211.676Z"
        fill="#A5B8C4"/>
  <path d="M195.395 193.167L195.001 179.693L209.608 179.296V177.574L193.667 178.091L194.129 193.201L195.395 193.167Z"
        fill="#A5B8C4"/>
  <path d="M106.55 135.824L106.978 150.038L225.922 145.972L225.528 131.605L106.55 135.824Z" fill="black"/>
  <path d="M381.334 134.069V145.112L480.882 145.267V135.22L384.756 132.277L381.334 134.069Z" fill="black"/>
  <path d="M317.312 222.244H316.406L312.984 92.8164C313.29 92.9204 313.587 93.0473 313.874 93.1954L317.312 222.244Z"
        fill="#A9BED3"/>
  <path d="M306.85 92.4546V222.52H305.96V92.7128C306.251 92.608 306.547 92.5225 306.849 92.4546H306.85Z"
        fill="#A9BED3"/>
  <path
    d="M320.202 103.267H298.579C298.565 102.965 298.595 102.664 298.667 102.371H320.082C320.139 102.667 320.18 102.966 320.202 103.267Z"
    fill="#A9BED3"/>
  <path d="M320.436 113.649H298.525V112.753H320.419L320.436 113.649Z" fill="#A9BED3"/>
  <path d="M320.607 123.238H298.576V124.134H320.607V123.238Z" fill="#A9BED3"/>
  <path d="M320.915 133.672H298.576V134.568H320.915V133.672Z" fill="#A9BED3"/>
  <path d="M321.137 144.157H298.576V145.054H321.137V144.157Z" fill="#A9BED3"/>
  <path d="M321.359 154.59H298.576V155.486H321.359V154.59Z" fill="#A9BED3"/>
  <path d="M321.599 165.075H298.576V165.972H321.599V165.075Z" fill="#A9BED3"/>
  <path d="M321.821 175.508H298.576V176.404H321.821V175.508Z" fill="#A9BED3"/>
  <path d="M322.043 185.993H298.576V186.89H322.043V185.993Z" fill="#A9BED3"/>
  <path d="M322.266 196.427H298.576V197.323H322.266V196.427Z" fill="#A9BED3"/>
  <path d="M322.488 206.912H298.576V207.808H322.488V206.912Z" fill="#A9BED3"/>
  <path d="M322.71 217.346H298.576V218.242H322.71V217.346Z" fill="#A9BED3"/>
  <path
    d="M309.349 111.472C313.005 111.472 315.968 108.487 315.968 104.805C315.968 101.122 313.005 98.1367 309.349 98.1367C305.693 98.1367 302.729 101.122 302.729 104.805C302.729 108.487 305.693 111.472 309.349 111.472Z"
    fill="#F9F0EF"/>
  <path
    d="M309.367 112.387C305.247 112.387 301.858 108.971 301.858 104.822C301.858 100.673 305.247 97.2583 309.367 97.2583C313.486 97.2583 316.876 100.673 316.876 104.822C316.876 108.971 313.486 112.387 309.367 112.387ZM309.367 98.1547C305.735 98.1547 302.748 101.165 302.748 104.822C302.748 108.479 305.735 111.489 309.367 111.489C312.998 111.489 315.986 108.479 315.986 104.822C315.986 101.165 312.998 98.1547 309.367 98.1547Z"
    fill="black"/>
  <path d="M1316.16 167.667L1506.37 170.08V159.363L1324.04 155.521L1314.49 156.486L1316.16 167.667Z" fill="#8399AA"/>
  <path d="M1322.7 156.45H1313.72V181.174H1322.7V156.45Z" fill="#D9DADB"/>
  <path d="M1386.39 156.45H1377.41V181.174H1386.39V156.45Z" fill="#D9DADB"/>
  <path d="M1447.82 156.45H1438.84V181.174H1447.82V156.45Z" fill="#D9DADB"/>
  <path d="M1515.35 156.45H1506.36V181.174H1515.35V156.45Z" fill="#D9DADB"/>
  <path
    d="M1306.19 153.66V156.986C1306.19 156.986 1422.29 157.985 1517.15 159.639V156.589C1517.15 156.589 1411.67 154.436 1306.19 153.66Z"
    fill="#F9F0EF"/>
  <path
    d="M874.296 152.858V144.777L890.802 146.5V162.453C886.75 162.608 876.574 163.59 876.574 163.59V168.967L890.802 168.554V182.336H874.296V145.656"
    fill="#8399AA"/>
  <path
    d="M312.492 107.077C312.418 107.093 312.342 107.093 312.269 107.077L309.156 105.233C309.019 105.157 308.933 105.012 308.934 104.854V101.27C308.934 101.024 309.134 100.822 309.379 100.822C309.622 100.822 309.822 101.024 309.822 101.27V104.544L312.71 106.267C312.922 106.392 312.999 106.665 312.886 106.884C312.793 107.008 312.646 107.08 312.492 107.077Z"
    fill="black"/>
  <path
    d="M726.549 95.9338L726.275 183.529L723.538 186.372L722.649 187.303L710.881 199.536V93.6431C712.592 93.6431 721.366 94.8488 721.366 94.8488V97.3811L722.649 97.0188L723.538 96.7782L726.549 95.9338Z"
    fill="#8399AA"/>
  <path d="M1089.75 105.594C1093.93 105.451 1098.12 105.521 1102.29 105.805V178.44L1089.75 178.079V105.594Z"
        fill="#8399AA"/>
  <path
    d="M1184.66 133.965V136.773C1184.66 136.773 1199.03 133.519 1228.69 133.554C1258.35 133.588 1276.12 136.775 1276.12 136.775V133.209C1276.12 133.209 1248.04 130.263 1229.19 130.263C1214.28 130.452 1199.41 131.689 1184.66 133.965Z"
    fill="#F9F0EF"/>
  <path
    d="M1184.67 117.524V120.333C1184.67 120.333 1199.04 117.094 1228.7 117.111C1258.36 117.128 1276.13 120.333 1276.13 120.333V117.524C1276.13 117.524 1248.04 113.837 1229.19 113.837C1214.28 114.026 1199.41 115.258 1184.66 117.524H1184.67Z"
    fill="#F9F0EF"/>
  <path
    d="M1184.67 157.981V160.823C1184.67 160.823 1199.04 157.588 1228.7 157.604C1258.36 157.622 1276.13 160.826 1276.13 160.826V157.208C1276.13 157.208 1248.04 154.279 1229.19 154.279C1214.28 154.468 1199.41 155.705 1184.66 157.981H1184.67Z"
    fill="#F9F0EF"/>
  <path
    d="M1306.19 92.5606V95.8676C1306.19 95.8676 1422.29 95.5406 1517.15 100.657V97.6075C1517.15 97.6075 1411.67 92.4398 1306.19 92.5597V92.5606Z"
    fill="#F9F0EF"/>
  <path
    d="M1306.19 113.84V117.148C1306.19 117.148 1422.29 116.769 1517.15 121.938V118.887C1517.15 118.887 1411.67 113.721 1306.19 113.84Z"
    fill="#F9F0EF"/>
  <path
    d="M1306.19 130.057V133.365C1306.19 133.365 1422.49 135.346 1517.15 138.327V135.277C1517.15 135.277 1411.67 130.815 1306.19 130.057Z"
    fill="#F9F0EF"/>
  <path
    d="M1306.19 76.1297V79.4375C1306.19 79.4375 1423.42 79.4375 1517.15 86.3292V83.1941C1517.15 83.1941 1410.9 75.0447 1306.19 76.1297Z"
    fill="#F9F0EF"/>
  <path d="M1312.88 56.8159L1300.91 75.1136V179.471H1313.89V56.8159H1312.88Z" fill="#8399AA"/>
  <path
    d="M1536.88 119.261V122.982C1536.88 122.982 1562.53 120.514 1584.26 129.874V126.172C1584.26 126.172 1574.83 119.21 1536.88 119.261Z"
    fill="#F9F0EF"/>
  <path
    d="M1536.88 134.085V137.807C1536.88 137.807 1562.53 135.339 1584.26 144.698V140.996C1584.26 140.996 1574.83 134.034 1536.88 134.085Z"
    fill="#F9F0EF"/>
  <path d="M721.732 204.484V206.19L704.644 215.735L679.295 210.067V208.378L704.644 214.047L721.732 204.484Z"
        fill="#F4C0B5"/>
  <path
    d="M1139.95 187.348V231.714L1135.86 231.748L1095.29 232.127V221.149H1086.35V205.298L1081.74 205.866H988.355V218.637H987.279V205.867H983.14L981.478 208.228L961.921 208.641V186.484L963.514 179.402L1023.09 175.767L1118.81 176.972V180.643H1135.86V187.328L1139.95 187.348Z"
    fill="#D9DADB"/>
  <path d="M987.13 206.809H788.153V213.011H987.13V206.809Z" fill="#D9DADB"/>
  <path d="M1097.01 218.275H1079.35V233.541H1097.01V218.275Z" fill="#CACBCC"/>
  <path
    d="M1679.98 188.758V226.732L1084.33 232.123V221.149L1079.22 218.1L1075.37 205.299L1070.77 205.867H977.383V218.637H976.307V205.867H972.168L970.505 208.228L950.949 208.641V186.484L952.542 179.402L1012.12 175.767L1107.84 176.972V180.643H1124.89V187.328L1679.98 188.758Z"
    fill="#D1D1D1"/>
  <path
    d="M1139.95 187.348V231.714L1135.86 231.748L1095.29 232.127V221.149H1086.35V205.298L1081.74 205.866H988.355V218.637H987.279V205.867H983.14L981.478 208.228L961.921 208.641V186.484L963.514 179.402L1023.09 175.767L1118.81 176.972V180.643H1135.86V187.328L1139.95 187.348Z"
    fill="#D9DADB"/>
  <path
    d="M1086.15 207.376V220.935L1085.14 221.366V223.33L1084.33 223.864V226.156L1083.31 226.724V228.74L1082.58 229.308V231.531H1081.55V208.014L1086.15 207.376Z"
    fill="#F7F7F7"/>
  <path d="M1081.55 205.983L1086.15 205.414V207.706L1081.55 208.343V205.983Z" fill="#BABABA"/>
  <path d="M988.845 230.705V205.673H1082.23V231.552L988.845 230.707" fill="#BABABA"/>
  <path d="M988.845 233.029V207.997H1082.23V233.859L988.845 233.029Z" fill="#E8E9EA"/>
  <path
    d="M716.061 191.907C716.061 191.907 721.055 182.724 723.997 182.724C726.938 182.724 773.784 181.398 773.784 181.398L967.163 182.345L966.139 186.928L716.06 191.907"
    fill="#F9F0EF"/>
  <path
    d="M494.653 230.838V221.067L567.483 209.972L664.482 201.134L713.384 191.541L807.954 188.681L968.922 186.407V190.043L796.579 192.921L778.055 209.737L732.079 210.306L645.239 217.885H569.296V228.705L494.653 230.838Z"
    fill="#F9F0EF"/>
  <path d="M474.297 231.362V216.424H616.931L780.055 205.982V229.243L474.297 231.358" fill="#F4E3E1"/>
  <path d="M793.024 193.159L965.369 190.281V208.819L793.024 209.975V193.159Z" fill="#D1D1D1"/>
  <path
    d="M776.347 209.783L794.87 192.966V211.143H790.474V215.588H785.616V219.758H781.306V224.741L779.562 225.843L771.386 224.257L772.737 217.831L776.347 211.145"
    fill="#D9DADB"/>
  <path
    d="M988.924 218.394H990V230.66L977.322 230.557L977.103 226.151L980.314 222.894L983.359 219.069L985.704 217.708L988.924 218.397"
    fill="#CACBCC"/>
  <path d="M987.743 205.828H984.803L974.845 220.024H977.339L987.743 205.828Z" fill="#C8CACC"/>
  <path
    d="M977.304 219.87L987.708 205.673H988.907V218.44H985.328V220.439H983.105V223.402H980.778V225.797H978.625V228.277H977.304V219.87Z"
    fill="#E8E9EA"/>
  <path d="M729.033 227.051V210.166L775.01 209.597V224.308L977.47 226.531V230.566L729.033 227.051Z" fill="#C8CACC"/>
  <path d="M161.782 230.103H150.903V231.723H161.782V230.103Z" fill="#E8E9EA"/>
  <path d="M161.782 227.056H150.903V228.676H161.782V227.056Z" fill="#E8E9EA"/>
  <path d="M161.782 223.957H150.903V225.577H161.782V223.957Z" fill="#E8E9EA"/>
  <path d="M161.782 220.909H150.903V222.529H161.782V220.909Z" fill="#F9F0EF"/>
  <path d="M145.776 222.445L484.768 216.364V232.353L145.776 240.864V222.443" fill="#F4E3E1"/>
  <path d="M161.773 205.878V243.852L256.631 240.148V210.048L161.773 205.878Z" fill="#E8DBDA"/>
  <path
    d="M984.838 209.546L964.45 209.943L788.553 210.991V215.436H783.695V219.606H779.385V224.584L976.552 226.567V220.433L984.838 209.546Z"
    fill="#E8E9EA"/>
  <path d="M783.743 219.656V215.486H980.41L976.595 220.483L783.743 219.656Z" fill="#D9DADB"/>
  <path
    d="M0.666626 284.655L92.6791 240.755L571.438 226.816L731.32 225.3L978.459 228.866L1178.33 229.4L1365.23 227.677L1679.98 224.783V319.907H0.667256V284.655H0.666626Z"
    fill="#9FC1A5"/>
  <path d="M119.353 319.948V240.072L81.1078 241.158L0.666626 284.696V319.952H119.353" fill="#9FB0C4"/>
  <path d="M26.1038 319.827L88.9962 240.795L85.3527 240.971L20.1512 319.827H34.1257" fill="#F9F0EF"/>
  <path d="M92.7263 319.949L114.586 240.176L110.019 240.331L87.9374 319.949H92.7263Z" fill="#F9F0EF"/>
  <path d="M155.431 320L133.265 239.108L137.746 238.987L160.205 319.931" fill="#F9F0EF"/>
  <path d="M734.065 319.939L991.812 228.915L985.958 228.983L722.982 319.939" fill="#F9F0EF"/>
  <path d="M977.444 219.825H974.951V230.558H977.444V219.825Z" fill="#C8CACC"/>
  <path d="M1105.95 206.137H1102.99L1093.04 220.334H1095.55L1105.95 206.137Z" fill="#BABABA"/>
  <path
    d="M1095.55 220.18L1105.95 205.982H1107.15V218.733H1103.56V220.749H1101.35V223.712H1099.01V226.092H1096.86V228.589H1095.55V220.182"
    fill="#E8E9EA"/>
  <path d="M1093.14 230.834L1093.16 220.083L1095.67 220.09L1095.64 230.841L1093.14 230.834Z" fill="#BABABA"/>
  <g opacity="0.3">
    <g opacity="0.3">
      <path opacity="0.3"
            d="M894.354 274.707C830.796 276.568 788.121 270.589 788.121 263.852C788.121 257.117 830.795 248.639 894.354 246.779C957.914 244.918 1000.62 250.897 1000.62 257.633C1000.62 264.369 957.862 272.846 894.354 274.707ZM894.354 244.987C840.819 246.555 785.435 254.065 785.435 263.936C785.435 273.808 840.822 278.082 894.354 276.514C947.887 274.946 1003.27 267.451 1003.27 257.565C1003.27 247.677 947.913 243.419 894.354 244.987Z"
            fill="#F9F0EF"/>
    </g>
  </g>
  <path
    d="M417.231 239.411H417.095L406.319 238.274C405.958 238.237 405.629 238.049 405.412 237.758C405.188 237.464 405.09 237.091 405.139 236.724L410.373 202.834C410.473 202.182 411.035 201.698 411.69 201.697H415.898V201.594C415.898 200.856 416.5 200.25 417.232 200.25H504.087C504.819 200.25 505.422 200.856 505.422 201.594V236.861C505.42 237.264 505.238 237.645 504.925 237.895C504.617 238.156 504.207 238.257 503.813 238.171L491.43 235.655C490.717 235.509 490.243 234.808 490.37 234.085L496.218 202.934H418.565V238.082C418.565 238.82 417.963 239.426 417.231 239.426V239.411ZM407.995 235.724L415.897 236.569V204.367H412.834L407.995 235.724ZM493.329 233.256L502.839 235.186V202.919H499.025L493.329 233.256Z"
    fill="#F9F0EF"/>
  <path
    d="M406.547 238.063C406.535 238.063 406.524 238.064 406.512 238.064C405.78 238.064 405.178 237.457 405.178 236.72C405.178 235.982 405.78 235.376 406.512 235.376C406.524 235.376 406.535 235.376 406.547 235.376L491.778 232.792C491.806 232.79 491.835 232.789 491.863 232.789C492.567 232.789 493.145 233.373 493.145 234.081C493.145 234.082 493.145 234.083 493.145 234.084C493.146 234.101 493.147 234.119 493.147 234.136C493.147 234.854 492.576 235.452 491.863 235.479L406.631 238.063H406.547Z"
    fill="#F9F0EF"/>
  <path
    d="M412.059 204.777C411.458 204.775 410.93 204.363 410.776 203.778C410.736 203.648 410.715 203.512 410.715 203.374C410.715 202.754 411.137 202.207 411.734 202.055L417.259 200.608C417.375 200.576 417.495 200.559 417.615 200.559C418.348 200.559 418.951 201.167 418.951 201.905C418.951 202.519 418.534 203.059 417.943 203.21L412.401 204.675L412.059 204.777Z"
    fill="#F9F0EF"/>
  <path d="M150.924 205.878L81.1175 214.717V242.715L150.924 241.804V205.878Z" fill="#E8DBDA"/>
  <path
    d="M1107.85 177.523H1265.3L1392.75 179.073L1519.31 180.641L1582.87 180.659L1680 183.398V189.326L1509.64 188.878L1406.15 188.601L1282.7 188.292L1165.38 187.982L1124.91 187.878V181.193H1107.85V177.523Z"
    fill="#F9F0EF"/>
  <path d="M784.461 159.083L786.189 161.013L862.679 166.441V165.042L784.461 159.083Z" fill="#8399AA"/>
  <path
    d="M1679.79 208.203V226.432L1086.37 228.636V223.226H1090.66V218.694H1095.53V213.853L1100.69 213.819L1271.44 212.716L1291.83 212.285L1679.79 208.203Z"
    fill="#E8E9EA"/>
  <path d="M1090.84 223.394V218.862L1679.96 215.589V220.861L1090.84 223.394Z" fill="#D9DADB"/>
  <path d="M1679.99 203.399V210.843L1096.68 214.22V209.705L1102.63 209.636L1186.35 208.723L1679.99 203.399Z"
        fill="#D9DADB"/>
  <path d="M1679.99 197.459V203.524L1181.26 208.848L1096.68 209.761V206.333L1679.99 197.459Z" fill="#E8E9EA"/>
  <path d="M1050.5 186.251H1025.92V203.671H1050.5V186.251Z" fill="#D1D1D1"/>
</svg>
